<mxfile host="app.diagrams.net" modified="2023-06-16T00:53:25.865Z" agent="Mozilla/5.0 (X11; Linux x86_64; rv:109.0) Gecko/20100101 Firefox/114.0" etag="zyxOupENEnOZIh-HwPfD" version="21.4.0" type="google">
  <diagram id="R2lEEEUBdFMjLlhIrx00" name="MER">
    <mxGraphModel grid="0" page="0" gridSize="10" guides="1" tooltips="1" connect="1" arrows="1" fold="1" pageScale="1" pageWidth="850" pageHeight="1100" math="0" shadow="0" extFonts="Permanent Marker^https://fonts.googleapis.com/css?family=Permanent+Marker">
      <root>
        <mxCell id="0" />
        <mxCell id="1" parent="0" />
        <mxCell id="gxrQh453CRDJ1SZHtIAR-37" value="+" style="edgeStyle=orthogonalEdgeStyle;rounded=0;orthogonalLoop=1;jettySize=auto;html=1;entryX=1;entryY=0.5;entryDx=0;entryDy=0;endArrow=none;endFill=0;" edge="1" parent="1" source="SztQCZqe5MYCLofAgVz8-11" target="g2xsP6k9ulPOgVXJOia_-8">
          <mxGeometry relative="1" as="geometry">
            <Array as="points">
              <mxPoint x="140" y="430" />
              <mxPoint x="140" y="430" />
            </Array>
          </mxGeometry>
        </mxCell>
        <mxCell id="Yt6A58S7o-zQ9m00CuNp-16" value="1" style="edgeLabel;html=1;align=center;verticalAlign=middle;resizable=0;points=[];" connectable="0" vertex="1" parent="gxrQh453CRDJ1SZHtIAR-37">
          <mxGeometry x="0.648" relative="1" as="geometry">
            <mxPoint as="offset" />
          </mxGeometry>
        </mxCell>
        <mxCell id="gxrQh453CRDJ1SZHtIAR-38" style="edgeStyle=orthogonalEdgeStyle;rounded=0;orthogonalLoop=1;jettySize=auto;html=1;entryX=0;entryY=0.5;entryDx=0;entryDy=0;endArrow=none;endFill=0;" edge="1" parent="1" source="SztQCZqe5MYCLofAgVz8-9" target="g2xsP6k9ulPOgVXJOia_-2">
          <mxGeometry relative="1" as="geometry">
            <Array as="points">
              <mxPoint x="943" y="430" />
            </Array>
          </mxGeometry>
        </mxCell>
        <mxCell id="Yt6A58S7o-zQ9m00CuNp-27" value="N" style="edgeLabel;html=1;align=center;verticalAlign=middle;resizable=0;points=[];" connectable="0" vertex="1" parent="gxrQh453CRDJ1SZHtIAR-38">
          <mxGeometry x="0.6704" relative="1" as="geometry">
            <mxPoint as="offset" />
          </mxGeometry>
        </mxCell>
        <mxCell id="g2xsP6k9ulPOgVXJOia_-1" value="Cliente" style="rounded=1;whiteSpace=wrap;html=1;" vertex="1" parent="1">
          <mxGeometry x="650" y="400" width="120" height="60" as="geometry" />
        </mxCell>
        <mxCell id="gxrQh453CRDJ1SZHtIAR-23" style="edgeStyle=orthogonalEdgeStyle;rounded=0;orthogonalLoop=1;jettySize=auto;html=1;entryX=0.5;entryY=0;entryDx=0;entryDy=0;endArrow=none;endFill=0;" edge="1" parent="1" source="gxrQh453CRDJ1SZHtIAR-106" target="g2xsP6k9ulPOgVXJOia_-9">
          <mxGeometry relative="1" as="geometry">
            <Array as="points">
              <mxPoint x="385" y="512" />
              <mxPoint x="385" y="560" />
            </Array>
          </mxGeometry>
        </mxCell>
        <mxCell id="j0MbrSx7gmbUQMFczRcB-45" value="1" style="edgeLabel;html=1;align=center;verticalAlign=middle;resizable=0;points=[];" connectable="0" vertex="1" parent="gxrQh453CRDJ1SZHtIAR-23">
          <mxGeometry x="0.6903" y="-1" relative="1" as="geometry">
            <mxPoint as="offset" />
          </mxGeometry>
        </mxCell>
        <mxCell id="gxrQh453CRDJ1SZHtIAR-33" style="edgeStyle=orthogonalEdgeStyle;rounded=0;orthogonalLoop=1;jettySize=auto;html=1;entryX=1;entryY=0.5;entryDx=0;entryDy=0;endArrow=none;endFill=0;" edge="1" parent="1" source="SztQCZqe5MYCLofAgVz8-1" target="g2xsP6k9ulPOgVXJOia_-9">
          <mxGeometry relative="1" as="geometry">
            <Array as="points" />
          </mxGeometry>
        </mxCell>
        <mxCell id="j0MbrSx7gmbUQMFczRcB-40" value="1" style="edgeLabel;html=1;align=center;verticalAlign=middle;resizable=0;points=[];" connectable="0" vertex="1" parent="gxrQh453CRDJ1SZHtIAR-33">
          <mxGeometry x="0.8884" y="3" relative="1" as="geometry">
            <mxPoint y="-1" as="offset" />
          </mxGeometry>
        </mxCell>
        <mxCell id="g2xsP6k9ulPOgVXJOia_-2" value="Locacao" style="rounded=1;whiteSpace=wrap;html=1;" vertex="1" parent="1">
          <mxGeometry x="968" y="400" width="120" height="60" as="geometry" />
        </mxCell>
        <mxCell id="gxrQh453CRDJ1SZHtIAR-78" style="edgeStyle=orthogonalEdgeStyle;rounded=0;orthogonalLoop=1;jettySize=auto;html=1;entryX=0;entryY=0.5;entryDx=0;entryDy=0;endArrow=none;endFill=0;" edge="1" parent="1" source="g2xsP6k9ulPOgVXJOia_-3" target="gxrQh453CRDJ1SZHtIAR-75">
          <mxGeometry relative="1" as="geometry">
            <Array as="points">
              <mxPoint x="20" y="-290" />
            </Array>
          </mxGeometry>
        </mxCell>
        <mxCell id="Yt6A58S7o-zQ9m00CuNp-7" value="1" style="edgeLabel;html=1;align=center;verticalAlign=middle;resizable=0;points=[];" connectable="0" vertex="1" parent="gxrQh453CRDJ1SZHtIAR-78">
          <mxGeometry x="-0.9221" relative="1" as="geometry">
            <mxPoint as="offset" />
          </mxGeometry>
        </mxCell>
        <mxCell id="Yt6A58S7o-zQ9m00CuNp-8" value="N" style="edgeLabel;html=1;align=center;verticalAlign=middle;resizable=0;points=[];" connectable="0" vertex="1" parent="gxrQh453CRDJ1SZHtIAR-78">
          <mxGeometry x="0.9521" relative="1" as="geometry">
            <mxPoint as="offset" />
          </mxGeometry>
        </mxCell>
        <mxCell id="gxrQh453CRDJ1SZHtIAR-101" style="edgeStyle=orthogonalEdgeStyle;rounded=0;orthogonalLoop=1;jettySize=auto;html=1;exitX=1;exitY=0.75;exitDx=0;exitDy=0;entryX=0;entryY=0.5;entryDx=0;entryDy=0;endArrow=none;endFill=0;" edge="1" parent="1" source="g2xsP6k9ulPOgVXJOia_-3" target="gxrQh453CRDJ1SZHtIAR-98">
          <mxGeometry relative="1" as="geometry">
            <Array as="points">
              <mxPoint x="102" y="-155" />
              <mxPoint x="102" y="298" />
            </Array>
          </mxGeometry>
        </mxCell>
        <mxCell id="gxrQh453CRDJ1SZHtIAR-115" value="1" style="edgeLabel;html=1;align=center;verticalAlign=middle;resizable=0;points=[];" vertex="1" connectable="0" parent="gxrQh453CRDJ1SZHtIAR-101">
          <mxGeometry x="-0.915" y="-3" relative="1" as="geometry">
            <mxPoint as="offset" />
          </mxGeometry>
        </mxCell>
        <mxCell id="gxrQh453CRDJ1SZHtIAR-104" style="edgeStyle=orthogonalEdgeStyle;rounded=0;orthogonalLoop=1;jettySize=auto;html=1;exitX=0.75;exitY=1;exitDx=0;exitDy=0;entryX=0.5;entryY=0;entryDx=0;entryDy=0;endArrow=none;endFill=0;" edge="1" parent="1" source="g2xsP6k9ulPOgVXJOia_-3" target="gxrQh453CRDJ1SZHtIAR-103">
          <mxGeometry relative="1" as="geometry" />
        </mxCell>
        <mxCell id="LBeVLWIl04Jx7ls1Goi7-29" value="1" style="edgeLabel;html=1;align=center;verticalAlign=middle;resizable=0;points=[];" connectable="0" vertex="1" parent="gxrQh453CRDJ1SZHtIAR-104">
          <mxGeometry x="-0.805" y="-2" relative="1" as="geometry">
            <mxPoint as="offset" />
          </mxGeometry>
        </mxCell>
        <mxCell id="g2xsP6k9ulPOgVXJOia_-3" value="Imovel" style="rounded=1;whiteSpace=wrap;html=1;" vertex="1" parent="1">
          <mxGeometry x="-70" y="-200" width="120" height="60" as="geometry" />
        </mxCell>
        <mxCell id="gxrQh453CRDJ1SZHtIAR-6" style="edgeStyle=orthogonalEdgeStyle;rounded=0;orthogonalLoop=1;jettySize=auto;html=1;entryX=0.5;entryY=1;entryDx=0;entryDy=0;endArrow=none;endFill=0;" edge="1" parent="1" source="gxrQh453CRDJ1SZHtIAR-43" target="g2xsP6k9ulPOgVXJOia_-5">
          <mxGeometry relative="1" as="geometry" />
        </mxCell>
        <mxCell id="j0MbrSx7gmbUQMFczRcB-25" value="N" style="edgeLabel;html=1;align=center;verticalAlign=middle;resizable=0;points=[];" connectable="0" vertex="1" parent="gxrQh453CRDJ1SZHtIAR-6">
          <mxGeometry x="0.7937" y="1" relative="1" as="geometry">
            <mxPoint as="offset" />
          </mxGeometry>
        </mxCell>
        <mxCell id="rBqYLypj0LlrX5aWcThq-44" style="edgeStyle=orthogonalEdgeStyle;rounded=0;orthogonalLoop=1;jettySize=auto;html=1;entryX=1;entryY=0.5;entryDx=0;entryDy=0;endArrow=none;endFill=0;curved=1;" edge="1" parent="1" source="g2xsP6k9ulPOgVXJOia_-4" target="rBqYLypj0LlrX5aWcThq-40">
          <mxGeometry relative="1" as="geometry" />
        </mxCell>
        <mxCell id="rBqYLypj0LlrX5aWcThq-46" style="edgeStyle=orthogonalEdgeStyle;rounded=0;orthogonalLoop=1;jettySize=auto;html=1;endArrow=none;endFill=0;curved=1;" edge="1" parent="1" source="g2xsP6k9ulPOgVXJOia_-4">
          <mxGeometry relative="1" as="geometry">
            <mxPoint x="586" y="194" as="targetPoint" />
          </mxGeometry>
        </mxCell>
        <mxCell id="rBqYLypj0LlrX5aWcThq-48" style="edgeStyle=orthogonalEdgeStyle;rounded=0;orthogonalLoop=1;jettySize=auto;html=1;endArrow=none;endFill=0;curved=1;" edge="1" parent="1" source="g2xsP6k9ulPOgVXJOia_-4">
          <mxGeometry relative="1" as="geometry">
            <mxPoint x="704.3333333333335" y="192.33333333333326" as="targetPoint" />
          </mxGeometry>
        </mxCell>
        <mxCell id="g2xsP6k9ulPOgVXJOia_-4" value="Estado" style="rounded=1;whiteSpace=wrap;html=1;" vertex="1" parent="1">
          <mxGeometry x="553" y="116.5" width="120" height="60" as="geometry" />
        </mxCell>
        <mxCell id="gxrQh453CRDJ1SZHtIAR-45" value="" style="edgeStyle=orthogonalEdgeStyle;rounded=0;orthogonalLoop=1;jettySize=auto;html=1;entryX=0.5;entryY=1;entryDx=0;entryDy=0;endArrow=none;endFill=0;" edge="1" parent="1" source="g2xsP6k9ulPOgVXJOia_-4" target="gxrQh453CRDJ1SZHtIAR-43">
          <mxGeometry relative="1" as="geometry">
            <mxPoint x="483" y="179" as="sourcePoint" />
            <mxPoint x="483" y="39" as="targetPoint" />
          </mxGeometry>
        </mxCell>
        <mxCell id="gxrQh453CRDJ1SZHtIAR-46" value="1" style="edgeLabel;html=1;align=center;verticalAlign=middle;resizable=0;points=[];" connectable="0" vertex="1" parent="gxrQh453CRDJ1SZHtIAR-45">
          <mxGeometry x="-0.7301" y="1" relative="1" as="geometry">
            <mxPoint as="offset" />
          </mxGeometry>
        </mxCell>
        <mxCell id="gxrQh453CRDJ1SZHtIAR-43" value="" style="rhombus;whiteSpace=wrap;html=1;" vertex="1" parent="1">
          <mxGeometry x="593" y="-1" width="40" height="40" as="geometry" />
        </mxCell>
        <mxCell id="gxrQh453CRDJ1SZHtIAR-98" value="" style="rhombus;whiteSpace=wrap;html=1;" vertex="1" parent="1">
          <mxGeometry x="570" y="278" width="40" height="40" as="geometry" />
        </mxCell>
        <mxCell id="gxrQh453CRDJ1SZHtIAR-105" style="edgeStyle=orthogonalEdgeStyle;rounded=0;orthogonalLoop=1;jettySize=auto;html=1;endArrow=none;endFill=0;" edge="1" parent="1" source="gxrQh453CRDJ1SZHtIAR-103" target="g2xsP6k9ulPOgVXJOia_-8">
          <mxGeometry relative="1" as="geometry" />
        </mxCell>
        <mxCell id="LBeVLWIl04Jx7ls1Goi7-28" value="1" style="edgeLabel;html=1;align=center;verticalAlign=middle;resizable=0;points=[];" connectable="0" vertex="1" parent="gxrQh453CRDJ1SZHtIAR-105">
          <mxGeometry x="0.6866" relative="1" as="geometry">
            <mxPoint as="offset" />
          </mxGeometry>
        </mxCell>
        <mxCell id="gxrQh453CRDJ1SZHtIAR-103" value="" style="rhombus;whiteSpace=wrap;html=1;" vertex="1" parent="1">
          <mxGeometry x="25" y="200" width="40" height="40" as="geometry" />
        </mxCell>
        <mxCell id="g2xsP6k9ulPOgVXJOia_-7" value="Bairro" style="rounded=1;whiteSpace=wrap;html=1;" vertex="1" parent="1">
          <mxGeometry x="233" y="-171" width="120" height="60" as="geometry" />
        </mxCell>
        <mxCell id="gxrQh453CRDJ1SZHtIAR-25" style="edgeStyle=orthogonalEdgeStyle;rounded=0;orthogonalLoop=1;jettySize=auto;html=1;entryX=1;entryY=0.5;entryDx=0;entryDy=0;exitX=1;exitY=0.5;exitDx=0;exitDy=0;endArrow=none;endFill=0;" edge="1" parent="1" source="rBqYLypj0LlrX5aWcThq-3" target="g2xsP6k9ulPOgVXJOia_-2">
          <mxGeometry relative="1" as="geometry">
            <Array as="points">
              <mxPoint x="1200" y="154" />
              <mxPoint x="1200" y="430" />
            </Array>
          </mxGeometry>
        </mxCell>
        <mxCell id="Yt6A58S7o-zQ9m00CuNp-17" value="N" style="edgeLabel;html=1;align=center;verticalAlign=middle;resizable=0;points=[];" connectable="0" vertex="1" parent="gxrQh453CRDJ1SZHtIAR-25">
          <mxGeometry x="0.8405" relative="1" as="geometry">
            <mxPoint x="-13" y="-1" as="offset" />
          </mxGeometry>
        </mxCell>
        <mxCell id="Yt6A58S7o-zQ9m00CuNp-18" value="1" style="edgeLabel;html=1;align=center;verticalAlign=middle;resizable=0;points=[];" connectable="0" vertex="1" parent="gxrQh453CRDJ1SZHtIAR-25">
          <mxGeometry x="-0.8948" y="-1" relative="1" as="geometry">
            <mxPoint as="offset" />
          </mxGeometry>
        </mxCell>
        <mxCell id="gxrQh453CRDJ1SZHtIAR-77" style="edgeStyle=orthogonalEdgeStyle;rounded=0;orthogonalLoop=1;jettySize=auto;html=1;entryX=1;entryY=0.5;entryDx=0;entryDy=0;endArrow=none;endFill=0;" edge="1" parent="1" source="rBqYLypj0LlrX5aWcThq-3" target="gxrQh453CRDJ1SZHtIAR-75">
          <mxGeometry relative="1" as="geometry" />
        </mxCell>
        <mxCell id="Yt6A58S7o-zQ9m00CuNp-9" value="N" style="edgeLabel;html=1;align=center;verticalAlign=middle;resizable=0;points=[];" connectable="0" vertex="1" parent="gxrQh453CRDJ1SZHtIAR-77">
          <mxGeometry x="0.6555" y="-1" relative="1" as="geometry">
            <mxPoint as="offset" />
          </mxGeometry>
        </mxCell>
        <mxCell id="Yt6A58S7o-zQ9m00CuNp-10" value="1" style="edgeLabel;html=1;align=center;verticalAlign=middle;resizable=0;points=[];" connectable="0" vertex="1" parent="gxrQh453CRDJ1SZHtIAR-77">
          <mxGeometry x="-0.7349" relative="1" as="geometry">
            <mxPoint as="offset" />
          </mxGeometry>
        </mxCell>
        <mxCell id="rBqYLypj0LlrX5aWcThq-3" value="TabelaPreco" style="rounded=1;whiteSpace=wrap;html=1;" vertex="1" parent="1">
          <mxGeometry x="840" y="114" width="120" height="60" as="geometry" />
        </mxCell>
        <mxCell id="gxrQh453CRDJ1SZHtIAR-7" style="edgeStyle=orthogonalEdgeStyle;rounded=0;orthogonalLoop=1;jettySize=auto;html=1;entryX=0.5;entryY=0;entryDx=0;entryDy=0;endArrow=none;endFill=0;" edge="1" parent="1" source="Yt6A58S7o-zQ9m00CuNp-1" target="g2xsP6k9ulPOgVXJOia_-3">
          <mxGeometry relative="1" as="geometry" />
        </mxCell>
        <mxCell id="j0MbrSx7gmbUQMFczRcB-34" value="N" style="edgeLabel;html=1;align=center;verticalAlign=middle;resizable=0;points=[];" connectable="0" vertex="1" parent="gxrQh453CRDJ1SZHtIAR-7">
          <mxGeometry x="0.6679" relative="1" as="geometry">
            <mxPoint as="offset" />
          </mxGeometry>
        </mxCell>
        <mxCell id="rBqYLypj0LlrX5aWcThq-4" value="AnexoImovel" style="rounded=1;whiteSpace=wrap;html=1;" vertex="1" parent="1">
          <mxGeometry x="45" y="-430" width="120" height="60" as="geometry" />
        </mxCell>
        <mxCell id="j0MbrSx7gmbUQMFczRcB-17" style="edgeStyle=orthogonalEdgeStyle;rounded=0;orthogonalLoop=1;jettySize=auto;html=1;endArrow=none;endFill=0;" edge="1" parent="1" source="gxrQh453CRDJ1SZHtIAR-52" target="g2xsP6k9ulPOgVXJOia_-7">
          <mxGeometry relative="1" as="geometry" />
        </mxCell>
        <mxCell id="j0MbrSx7gmbUQMFczRcB-29" value="1" style="edgeLabel;html=1;align=center;verticalAlign=middle;resizable=0;points=[];" connectable="0" vertex="1" parent="j0MbrSx7gmbUQMFczRcB-17">
          <mxGeometry x="0.6509" y="1" relative="1" as="geometry">
            <mxPoint as="offset" />
          </mxGeometry>
        </mxCell>
        <mxCell id="gxrQh453CRDJ1SZHtIAR-4" style="edgeStyle=orthogonalEdgeStyle;rounded=0;orthogonalLoop=1;jettySize=auto;html=1;entryX=1;entryY=0.5;entryDx=0;entryDy=0;endArrow=none;endFill=0;" edge="1" parent="1" source="gxrQh453CRDJ1SZHtIAR-107" target="g2xsP6k9ulPOgVXJOia_-3">
          <mxGeometry relative="1" as="geometry">
            <Array as="points">
              <mxPoint x="139" y="-170" />
            </Array>
          </mxGeometry>
        </mxCell>
        <mxCell id="j0MbrSx7gmbUQMFczRcB-44" value="N" style="edgeLabel;html=1;align=center;verticalAlign=middle;resizable=0;points=[];" connectable="0" vertex="1" parent="gxrQh453CRDJ1SZHtIAR-4">
          <mxGeometry x="0.69" y="1" relative="1" as="geometry">
            <mxPoint as="offset" />
          </mxGeometry>
        </mxCell>
        <mxCell id="rBqYLypj0LlrX5aWcThq-57" style="edgeStyle=orthogonalEdgeStyle;rounded=0;orthogonalLoop=1;jettySize=auto;html=1;endArrow=none;endFill=0;" edge="1" parent="1" source="rBqYLypj0LlrX5aWcThq-5">
          <mxGeometry relative="1" as="geometry">
            <mxPoint x="706" y="399" as="targetPoint" />
            <Array as="points">
              <mxPoint x="299" y="366" />
              <mxPoint x="703" y="366" />
              <mxPoint x="703" y="399" />
            </Array>
          </mxGeometry>
        </mxCell>
        <mxCell id="gxrQh453CRDJ1SZHtIAR-169" style="edgeStyle=orthogonalEdgeStyle;rounded=0;orthogonalLoop=1;jettySize=auto;html=1;exitX=0.5;exitY=0;exitDx=0;exitDy=0;entryX=1;entryY=0.75;entryDx=0;entryDy=0;endArrow=none;endFill=0;" edge="1" parent="1" source="gxrQh453CRDJ1SZHtIAR-170" target="rBqYLypj0LlrX5aWcThq-13">
          <mxGeometry relative="1" as="geometry">
            <Array as="points">
              <mxPoint x="462" y="-226" />
              <mxPoint x="462" y="-363" />
              <mxPoint x="340" y="-363" />
              <mxPoint x="340" y="-485" />
            </Array>
          </mxGeometry>
        </mxCell>
        <mxCell id="gxrQh453CRDJ1SZHtIAR-176" value="N" style="edgeLabel;html=1;align=center;verticalAlign=middle;resizable=0;points=[];" vertex="1" connectable="0" parent="gxrQh453CRDJ1SZHtIAR-169">
          <mxGeometry x="0.8442" y="-1" relative="1" as="geometry">
            <mxPoint as="offset" />
          </mxGeometry>
        </mxCell>
        <mxCell id="gxrQh453CRDJ1SZHtIAR-177" style="edgeStyle=orthogonalEdgeStyle;rounded=0;orthogonalLoop=1;jettySize=auto;html=1;entryX=0.75;entryY=1;entryDx=0;entryDy=0;exitX=0;exitY=0.75;exitDx=0;exitDy=0;endArrow=none;endFill=0;" edge="1" parent="1" source="gxrQh453CRDJ1SZHtIAR-178" target="rBqYLypj0LlrX5aWcThq-15">
          <mxGeometry relative="1" as="geometry">
            <Array as="points">
              <mxPoint x="-225" y="-9" />
              <mxPoint x="-225" y="-243" />
              <mxPoint x="-290" y="-243" />
            </Array>
          </mxGeometry>
        </mxCell>
        <mxCell id="gxrQh453CRDJ1SZHtIAR-180" value="N" style="edgeLabel;html=1;align=center;verticalAlign=middle;resizable=0;points=[];" vertex="1" connectable="0" parent="gxrQh453CRDJ1SZHtIAR-177">
          <mxGeometry x="0.9483" relative="1" as="geometry">
            <mxPoint as="offset" />
          </mxGeometry>
        </mxCell>
        <mxCell id="rBqYLypj0LlrX5aWcThq-5" value="CEP" style="rounded=1;whiteSpace=wrap;html=1;" vertex="1" parent="1">
          <mxGeometry x="233" y="90" width="120" height="60" as="geometry" />
        </mxCell>
        <mxCell id="LBeVLWIl04Jx7ls1Goi7-12" style="edgeStyle=orthogonalEdgeStyle;rounded=0;orthogonalLoop=1;jettySize=auto;html=1;exitX=0.25;exitY=1;exitDx=0;exitDy=0;entryX=0.5;entryY=0;entryDx=0;entryDy=0;endArrow=none;endFill=0;curved=1;" edge="1" parent="1" source="g2xsP6k9ulPOgVXJOia_-9" target="LBeVLWIl04Jx7ls1Goi7-11">
          <mxGeometry relative="1" as="geometry" />
        </mxCell>
        <mxCell id="g2xsP6k9ulPOgVXJOia_-9" value="Transacao" style="rounded=1;whiteSpace=wrap;html=1;" vertex="1" parent="1">
          <mxGeometry x="340" y="560" width="120" height="60" as="geometry" />
        </mxCell>
        <mxCell id="Yt6A58S7o-zQ9m00CuNp-25" style="edgeStyle=orthogonalEdgeStyle;rounded=0;orthogonalLoop=1;jettySize=auto;html=1;endArrow=none;endFill=0;" edge="1" parent="1" source="rBqYLypj0LlrX5aWcThq-6">
          <mxGeometry relative="1" as="geometry">
            <mxPoint x="-281.87" y="23" as="targetPoint" />
            <Array as="points">
              <mxPoint x="-126" y="23" />
            </Array>
          </mxGeometry>
        </mxCell>
        <mxCell id="rBqYLypj0LlrX5aWcThq-6" value="Sala Comercial" style="rounded=1;whiteSpace=wrap;html=1;" vertex="1" parent="1">
          <mxGeometry x="-190" y="103" width="120" height="60" as="geometry" />
        </mxCell>
        <mxCell id="rBqYLypj0LlrX5aWcThq-7" value="Casa" style="rounded=1;whiteSpace=wrap;html=1;" vertex="1" parent="1">
          <mxGeometry x="-464" y="92" width="120" height="60" as="geometry" />
        </mxCell>
        <mxCell id="Yt6A58S7o-zQ9m00CuNp-24" style="edgeStyle=orthogonalEdgeStyle;rounded=0;orthogonalLoop=1;jettySize=auto;html=1;endArrow=none;endFill=0;" edge="1" parent="1" source="rBqYLypj0LlrX5aWcThq-8">
          <mxGeometry relative="1" as="geometry">
            <mxPoint x="-281.87" y="23" as="targetPoint" />
            <Array as="points">
              <mxPoint x="-461.87" y="23" />
              <mxPoint x="-281.87" y="23" />
            </Array>
          </mxGeometry>
        </mxCell>
        <mxCell id="rBqYLypj0LlrX5aWcThq-8" value="Apartamento" style="rounded=1;whiteSpace=wrap;html=1;" vertex="1" parent="1">
          <mxGeometry x="-780" y="92" width="120" height="60" as="geometry" />
        </mxCell>
        <mxCell id="gxrQh453CRDJ1SZHtIAR-15" style="edgeStyle=orthogonalEdgeStyle;rounded=0;orthogonalLoop=1;jettySize=auto;html=1;entryX=0;entryY=0.5;entryDx=0;entryDy=0;endArrow=none;endFill=0;" edge="1" parent="1" source="SztQCZqe5MYCLofAgVz8-5" target="g2xsP6k9ulPOgVXJOia_-9">
          <mxGeometry relative="1" as="geometry" />
        </mxCell>
        <mxCell id="j0MbrSx7gmbUQMFczRcB-30" value="1" style="edgeLabel;html=1;align=center;verticalAlign=middle;resizable=0;points=[];" connectable="0" vertex="1" parent="gxrQh453CRDJ1SZHtIAR-15">
          <mxGeometry x="0.6535" y="1" relative="1" as="geometry">
            <mxPoint as="offset" />
          </mxGeometry>
        </mxCell>
        <mxCell id="gxrQh453CRDJ1SZHtIAR-1" value="FormaPagamento" style="rounded=1;whiteSpace=wrap;html=1;" vertex="1" parent="1">
          <mxGeometry x="-438" y="362" width="120" height="60" as="geometry" />
        </mxCell>
        <mxCell id="LBeVLWIl04Jx7ls1Goi7-24" style="edgeStyle=orthogonalEdgeStyle;rounded=0;orthogonalLoop=1;jettySize=auto;html=1;exitX=0.158;exitY=0;exitDx=0;exitDy=0;entryX=1;entryY=0.5;entryDx=0;entryDy=0;endArrow=none;endFill=0;curved=1;exitPerimeter=0;" edge="1" parent="1" source="g2xsP6k9ulPOgVXJOia_-8" target="LBeVLWIl04Jx7ls1Goi7-23">
          <mxGeometry relative="1" as="geometry" />
        </mxCell>
        <mxCell id="g2xsP6k9ulPOgVXJOia_-8" value="Venda" style="rounded=1;whiteSpace=wrap;html=1;" vertex="1" parent="1">
          <mxGeometry x="-15" y="393" width="120" height="60" as="geometry" />
        </mxCell>
        <mxCell id="gxrQh453CRDJ1SZHtIAR-40" style="edgeStyle=orthogonalEdgeStyle;rounded=0;orthogonalLoop=1;jettySize=auto;html=1;entryX=0.5;entryY=0;entryDx=0;entryDy=0;endArrow=none;endFill=0;" edge="1" parent="1" source="gxrQh453CRDJ1SZHtIAR-60" target="rBqYLypj0LlrX5aWcThq-15">
          <mxGeometry relative="1" as="geometry" />
        </mxCell>
        <mxCell id="gxrQh453CRDJ1SZHtIAR-84" style="edgeStyle=orthogonalEdgeStyle;rounded=0;orthogonalLoop=1;jettySize=auto;html=1;entryX=1;entryY=0.5;entryDx=0;entryDy=0;endArrow=none;endFill=0;" edge="1" parent="1" source="rBqYLypj0LlrX5aWcThq-13" target="gxrQh453CRDJ1SZHtIAR-60">
          <mxGeometry relative="1" as="geometry" />
        </mxCell>
        <mxCell id="gxrQh453CRDJ1SZHtIAR-156" value="&amp;nbsp;" style="edgeStyle=orthogonalEdgeStyle;rounded=0;orthogonalLoop=1;jettySize=auto;html=1;entryX=0.5;entryY=1;entryDx=0;entryDy=0;endArrow=none;endFill=0;" edge="1" parent="1" source="gxrQh453CRDJ1SZHtIAR-182" target="g2xsP6k9ulPOgVXJOia_-9">
          <mxGeometry relative="1" as="geometry">
            <Array as="points">
              <mxPoint x="-1018" y="105" />
              <mxPoint x="-1018" y="751" />
              <mxPoint x="400" y="751" />
            </Array>
          </mxGeometry>
        </mxCell>
        <mxCell id="gxrQh453CRDJ1SZHtIAR-185" value="1" style="edgeLabel;html=1;align=center;verticalAlign=middle;resizable=0;points=[];" vertex="1" connectable="0" parent="gxrQh453CRDJ1SZHtIAR-156">
          <mxGeometry x="0.9763" y="2" relative="1" as="geometry">
            <mxPoint as="offset" />
          </mxGeometry>
        </mxCell>
        <mxCell id="rBqYLypj0LlrX5aWcThq-13" value="&lt;div&gt;Funcionario&lt;/div&gt;" style="rounded=1;whiteSpace=wrap;html=1;" vertex="1" parent="1">
          <mxGeometry x="170" y="-530" width="120" height="60" as="geometry" />
        </mxCell>
        <mxCell id="gxrQh453CRDJ1SZHtIAR-42" style="edgeStyle=orthogonalEdgeStyle;rounded=0;orthogonalLoop=1;jettySize=auto;html=1;entryX=1;entryY=0.5;entryDx=0;entryDy=0;endArrow=none;endFill=0;" edge="1" parent="1" source="gxrQh453CRDJ1SZHtIAR-56" target="rBqYLypj0LlrX5aWcThq-13">
          <mxGeometry relative="1" as="geometry" />
        </mxCell>
        <mxCell id="j0MbrSx7gmbUQMFczRcB-49" value="N" style="edgeLabel;html=1;align=center;verticalAlign=middle;resizable=0;points=[];" connectable="0" vertex="1" parent="gxrQh453CRDJ1SZHtIAR-42">
          <mxGeometry x="0.6687" y="-1" relative="1" as="geometry">
            <mxPoint as="offset" />
          </mxGeometry>
        </mxCell>
        <mxCell id="rBqYLypj0LlrX5aWcThq-14" value="Cargo" style="rounded=1;whiteSpace=wrap;html=1;" vertex="1" parent="1">
          <mxGeometry x="710" y="-530" width="120" height="60" as="geometry" />
        </mxCell>
        <mxCell id="gxrQh453CRDJ1SZHtIAR-49" value="" style="edgeStyle=orthogonalEdgeStyle;rounded=0;orthogonalLoop=1;jettySize=auto;html=1;entryX=1;entryY=0.5;entryDx=0;entryDy=0;endArrow=none;endFill=0;startArrow=none;startFill=0;" edge="1" parent="1" source="g2xsP6k9ulPOgVXJOia_-5" target="gxrQh453CRDJ1SZHtIAR-48">
          <mxGeometry relative="1" as="geometry">
            <mxPoint x="423" y="9" as="sourcePoint" />
            <mxPoint x="293" y="9" as="targetPoint" />
          </mxGeometry>
        </mxCell>
        <mxCell id="gxrQh453CRDJ1SZHtIAR-50" value="1" style="edgeLabel;html=1;align=center;verticalAlign=middle;resizable=0;points=[];" connectable="0" vertex="1" parent="gxrQh453CRDJ1SZHtIAR-49">
          <mxGeometry x="-0.7489" relative="1" as="geometry">
            <mxPoint as="offset" />
          </mxGeometry>
        </mxCell>
        <mxCell id="gxrQh453CRDJ1SZHtIAR-48" value="" style="rhombus;whiteSpace=wrap;html=1;" vertex="1" parent="1">
          <mxGeometry x="423" y="-161" width="40" height="40" as="geometry" />
        </mxCell>
        <mxCell id="gxrQh453CRDJ1SZHtIAR-53" value="" style="edgeStyle=orthogonalEdgeStyle;rounded=0;orthogonalLoop=1;jettySize=auto;html=1;endArrow=none;endFill=0;" edge="1" parent="1" source="rBqYLypj0LlrX5aWcThq-5" target="gxrQh453CRDJ1SZHtIAR-52">
          <mxGeometry relative="1" as="geometry">
            <mxPoint x="233" y="179" as="sourcePoint" />
            <mxPoint x="233" y="39" as="targetPoint" />
          </mxGeometry>
        </mxCell>
        <mxCell id="gxrQh453CRDJ1SZHtIAR-54" value="N" style="edgeLabel;html=1;align=center;verticalAlign=middle;resizable=0;points=[];" connectable="0" vertex="1" parent="gxrQh453CRDJ1SZHtIAR-53">
          <mxGeometry x="-0.6586" y="-1" relative="1" as="geometry">
            <mxPoint as="offset" />
          </mxGeometry>
        </mxCell>
        <mxCell id="gxrQh453CRDJ1SZHtIAR-52" value="" style="rhombus;whiteSpace=wrap;html=1;" vertex="1" parent="1">
          <mxGeometry x="273" y="-1" width="40" height="40" as="geometry" />
        </mxCell>
        <mxCell id="gxrQh453CRDJ1SZHtIAR-56" value="" style="rhombus;whiteSpace=wrap;html=1;" vertex="1" parent="1">
          <mxGeometry x="480" y="-520" width="40" height="40" as="geometry" />
        </mxCell>
        <mxCell id="gxrQh453CRDJ1SZHtIAR-60" value="" style="rhombus;whiteSpace=wrap;html=1;" vertex="1" parent="1">
          <mxGeometry x="-340" y="-520" width="40" height="40" as="geometry" />
        </mxCell>
        <mxCell id="Yt6A58S7o-zQ9m00CuNp-2" value="" style="edgeStyle=orthogonalEdgeStyle;rounded=0;orthogonalLoop=1;jettySize=auto;html=1;entryX=1;entryY=0.5;entryDx=0;entryDy=0;endArrow=none;endFill=0;" edge="1" parent="1" source="rBqYLypj0LlrX5aWcThq-4" target="Yt6A58S7o-zQ9m00CuNp-1">
          <mxGeometry relative="1" as="geometry">
            <mxPoint x="460" y="110" as="sourcePoint" />
            <mxPoint x="460" y="190" as="targetPoint" />
          </mxGeometry>
        </mxCell>
        <mxCell id="Yt6A58S7o-zQ9m00CuNp-1" value="" style="rhombus;whiteSpace=wrap;html=1;" vertex="1" parent="1">
          <mxGeometry x="-31.869999999999994" y="-390" width="43.75" height="40" as="geometry" />
        </mxCell>
        <mxCell id="gxrQh453CRDJ1SZHtIAR-57" value="" style="edgeStyle=orthogonalEdgeStyle;rounded=0;orthogonalLoop=1;jettySize=auto;html=1;entryX=1;entryY=0.5;entryDx=0;entryDy=0;endArrow=none;endFill=0;" edge="1" parent="1" source="rBqYLypj0LlrX5aWcThq-14" target="gxrQh453CRDJ1SZHtIAR-56">
          <mxGeometry relative="1" as="geometry">
            <mxPoint x="470" y="-200" as="sourcePoint" />
            <mxPoint x="290" y="-200" as="targetPoint" />
          </mxGeometry>
        </mxCell>
        <mxCell id="gxrQh453CRDJ1SZHtIAR-58" value="1" style="edgeLabel;html=1;align=center;verticalAlign=middle;resizable=0;points=[];" connectable="0" vertex="1" parent="gxrQh453CRDJ1SZHtIAR-57">
          <mxGeometry x="-0.7336" y="-1" relative="1" as="geometry">
            <mxPoint as="offset" />
          </mxGeometry>
        </mxCell>
        <mxCell id="SztQCZqe5MYCLofAgVz8-2" value="" style="edgeStyle=orthogonalEdgeStyle;rounded=0;orthogonalLoop=1;jettySize=auto;html=1;entryX=1;entryY=0.5;entryDx=0;entryDy=0;endArrow=none;endFill=0;exitX=0.5;exitY=1;exitDx=0;exitDy=0;" edge="1" parent="1" source="g2xsP6k9ulPOgVXJOia_-2" target="SztQCZqe5MYCLofAgVz8-1">
          <mxGeometry relative="1" as="geometry">
            <Array as="points">
              <mxPoint x="1032" y="460" />
              <mxPoint x="1032" y="590" />
            </Array>
            <mxPoint x="790" y="380" as="sourcePoint" />
            <mxPoint x="510" y="470" as="targetPoint" />
          </mxGeometry>
        </mxCell>
        <mxCell id="SztQCZqe5MYCLofAgVz8-4" value="N" style="edgeLabel;html=1;align=center;verticalAlign=middle;resizable=0;points=[];" connectable="0" vertex="1" parent="SztQCZqe5MYCLofAgVz8-2">
          <mxGeometry x="-0.908" relative="1" as="geometry">
            <mxPoint as="offset" />
          </mxGeometry>
        </mxCell>
        <mxCell id="gxrQh453CRDJ1SZHtIAR-72" style="edgeStyle=orthogonalEdgeStyle;rounded=0;orthogonalLoop=1;jettySize=auto;html=1;entryX=0.25;entryY=0;entryDx=0;entryDy=0;" edge="1" parent="1" target="g2xsP6k9ulPOgVXJOia_-3">
          <mxGeometry relative="1" as="geometry" />
        </mxCell>
        <mxCell id="SztQCZqe5MYCLofAgVz8-5" value="" style="rhombus;whiteSpace=wrap;html=1;" vertex="1" parent="1">
          <mxGeometry x="-60" y="570" width="40" height="40" as="geometry" />
        </mxCell>
        <mxCell id="SztQCZqe5MYCLofAgVz8-9" value="" style="rhombus;whiteSpace=wrap;html=1;" vertex="1" parent="1">
          <mxGeometry x="840" y="410" width="40" height="40" as="geometry" />
        </mxCell>
        <mxCell id="gxrQh453CRDJ1SZHtIAR-75" value="ImoveisTabela" style="shape=associativeEntity;whiteSpace=wrap;html=1;align=center;" vertex="1" parent="1">
          <mxGeometry x="640" y="-320" width="110" height="60" as="geometry" />
        </mxCell>
        <mxCell id="SztQCZqe5MYCLofAgVz8-1" value="" style="rhombus;whiteSpace=wrap;html=1;" vertex="1" parent="1">
          <mxGeometry x="680" y="570" width="40" height="40" as="geometry" />
        </mxCell>
        <mxCell id="SztQCZqe5MYCLofAgVz8-6" value="" style="edgeStyle=orthogonalEdgeStyle;rounded=0;orthogonalLoop=1;jettySize=auto;html=1;entryX=0;entryY=0.5;entryDx=0;entryDy=0;endArrow=none;endFill=0;" edge="1" parent="1" source="gxrQh453CRDJ1SZHtIAR-1" target="SztQCZqe5MYCLofAgVz8-5">
          <mxGeometry relative="1" as="geometry">
            <mxPoint x="200" y="470" as="sourcePoint" />
            <mxPoint x="390" y="470" as="targetPoint" />
          </mxGeometry>
        </mxCell>
        <mxCell id="SztQCZqe5MYCLofAgVz8-8" value="1" style="edgeLabel;html=1;align=center;verticalAlign=middle;resizable=0;points=[];" connectable="0" vertex="1" parent="SztQCZqe5MYCLofAgVz8-6">
          <mxGeometry x="-0.712" y="-1" relative="1" as="geometry">
            <mxPoint as="offset" />
          </mxGeometry>
        </mxCell>
        <mxCell id="SztQCZqe5MYCLofAgVz8-10" value="" style="edgeStyle=orthogonalEdgeStyle;rounded=0;orthogonalLoop=1;jettySize=auto;html=1;endArrow=none;endFill=0;entryX=0;entryY=0.5;entryDx=0;entryDy=0;" edge="1" parent="1" source="g2xsP6k9ulPOgVXJOia_-1" target="SztQCZqe5MYCLofAgVz8-9">
          <mxGeometry relative="1" as="geometry">
            <mxPoint x="690" y="350" as="sourcePoint" />
            <mxPoint x="840" y="420" as="targetPoint" />
            <Array as="points">
              <mxPoint x="830" y="430" />
              <mxPoint x="830" y="430" />
            </Array>
          </mxGeometry>
        </mxCell>
        <mxCell id="Yt6A58S7o-zQ9m00CuNp-28" value="1" style="edgeLabel;html=1;align=center;verticalAlign=middle;resizable=0;points=[];" connectable="0" vertex="1" parent="SztQCZqe5MYCLofAgVz8-10">
          <mxGeometry x="-0.6119" relative="1" as="geometry">
            <mxPoint as="offset" />
          </mxGeometry>
        </mxCell>
        <mxCell id="SztQCZqe5MYCLofAgVz8-11" value="" style="rhombus;whiteSpace=wrap;html=1;" vertex="1" parent="1">
          <mxGeometry x="340" y="410" width="40" height="40" as="geometry" />
        </mxCell>
        <mxCell id="SztQCZqe5MYCLofAgVz8-12" value="" style="rhombus;whiteSpace=wrap;html=1;" vertex="1" parent="1">
          <mxGeometry x="1137" y="134" width="40" height="40" as="geometry" />
        </mxCell>
        <mxCell id="Yt6A58S7o-zQ9m00CuNp-13" value="" style="edgeStyle=orthogonalEdgeStyle;rounded=0;orthogonalLoop=1;jettySize=auto;html=1;entryX=1;entryY=0.5;entryDx=0;entryDy=0;endArrow=none;endFill=0;" edge="1" parent="1" source="g2xsP6k9ulPOgVXJOia_-1" target="SztQCZqe5MYCLofAgVz8-11">
          <mxGeometry relative="1" as="geometry">
            <mxPoint x="660" y="350" as="sourcePoint" />
            <mxPoint x="475" y="350" as="targetPoint" />
            <Array as="points">
              <mxPoint x="445" y="430" />
            </Array>
          </mxGeometry>
        </mxCell>
        <mxCell id="Yt6A58S7o-zQ9m00CuNp-14" value="1" style="edgeLabel;html=1;align=center;verticalAlign=middle;resizable=0;points=[];" connectable="0" vertex="1" parent="Yt6A58S7o-zQ9m00CuNp-13">
          <mxGeometry x="-0.5849" relative="1" as="geometry">
            <mxPoint as="offset" />
          </mxGeometry>
        </mxCell>
        <mxCell id="rBqYLypj0LlrX5aWcThq-15" value="Imobiliaria" style="rounded=1;whiteSpace=wrap;html=1;" vertex="1" parent="1">
          <mxGeometry x="-380" y="-350" width="120" height="60" as="geometry" />
        </mxCell>
        <mxCell id="gxrQh453CRDJ1SZHtIAR-96" style="edgeStyle=orthogonalEdgeStyle;rounded=0;orthogonalLoop=1;jettySize=auto;html=1;entryX=0;entryY=0.5;entryDx=0;entryDy=0;endArrow=none;endFill=0;" edge="1" parent="1" source="gxrQh453CRDJ1SZHtIAR-94" target="g2xsP6k9ulPOgVXJOia_-3">
          <mxGeometry relative="1" as="geometry" />
        </mxCell>
        <mxCell id="gxrQh453CRDJ1SZHtIAR-95" style="edgeStyle=orthogonalEdgeStyle;rounded=0;orthogonalLoop=1;jettySize=auto;html=1;entryX=0.5;entryY=0;entryDx=0;entryDy=0;endArrow=none;endFill=0;" edge="1" parent="1" source="rBqYLypj0LlrX5aWcThq-15" target="gxrQh453CRDJ1SZHtIAR-94">
          <mxGeometry relative="1" as="geometry" />
        </mxCell>
        <mxCell id="gxrQh453CRDJ1SZHtIAR-94" value="" style="rhombus;whiteSpace=wrap;html=1;" vertex="1" parent="1">
          <mxGeometry x="-340" y="-190" width="40" height="40" as="geometry" />
        </mxCell>
        <mxCell id="rBqYLypj0LlrX5aWcThq-28" style="edgeStyle=orthogonalEdgeStyle;rounded=0;orthogonalLoop=1;jettySize=auto;html=1;endArrow=none;endFill=0;startArrow=none;startFill=0;entryX=0.5;entryY=0;entryDx=0;entryDy=0;exitX=0.25;exitY=1;exitDx=0;exitDy=0;" edge="1" parent="1" source="g2xsP6k9ulPOgVXJOia_-3" target="rBqYLypj0LlrX5aWcThq-7">
          <mxGeometry relative="1" as="geometry">
            <mxPoint x="-380" as="targetPoint" />
            <Array as="points">
              <mxPoint x="-36" y="-140" />
              <mxPoint x="-36" y="-55" />
              <mxPoint x="-403" y="-55" />
              <mxPoint x="-403" y="22" />
              <mxPoint x="-404" y="22" />
            </Array>
            <mxPoint x="-36" y="-135" as="sourcePoint" />
          </mxGeometry>
        </mxCell>
        <mxCell id="g2xsP6k9ulPOgVXJOia_-5" value="Cidade" style="rounded=1;whiteSpace=wrap;html=1;" vertex="1" parent="1">
          <mxGeometry x="553" y="-171" width="120" height="60" as="geometry" />
        </mxCell>
        <mxCell id="gxrQh453CRDJ1SZHtIAR-102" style="edgeStyle=orthogonalEdgeStyle;rounded=0;orthogonalLoop=1;jettySize=auto;html=1;entryX=0.5;entryY=0;entryDx=0;entryDy=0;endArrow=none;endFill=0;" edge="1" parent="1" source="gxrQh453CRDJ1SZHtIAR-98" target="g2xsP6k9ulPOgVXJOia_-2">
          <mxGeometry relative="1" as="geometry">
            <Array as="points">
              <mxPoint x="1028" y="298" />
            </Array>
          </mxGeometry>
        </mxCell>
        <mxCell id="gxrQh453CRDJ1SZHtIAR-114" value="N" style="edgeLabel;html=1;align=center;verticalAlign=middle;resizable=0;points=[];" vertex="1" connectable="0" parent="gxrQh453CRDJ1SZHtIAR-102">
          <mxGeometry x="0.9198" y="-2" relative="1" as="geometry">
            <mxPoint as="offset" />
          </mxGeometry>
        </mxCell>
        <mxCell id="gxrQh453CRDJ1SZHtIAR-108" value="" style="edgeStyle=orthogonalEdgeStyle;rounded=0;orthogonalLoop=1;jettySize=auto;html=1;entryX=1;entryY=0.5;entryDx=0;entryDy=0;endArrow=none;endFill=0;" edge="1" parent="1" source="rBqYLypj0LlrX5aWcThq-5" target="gxrQh453CRDJ1SZHtIAR-107">
          <mxGeometry relative="1" as="geometry">
            <mxPoint x="233" y="120" as="sourcePoint" />
            <mxPoint x="50" y="-170" as="targetPoint" />
          </mxGeometry>
        </mxCell>
        <mxCell id="gxrQh453CRDJ1SZHtIAR-109" value="1" style="edgeLabel;html=1;align=center;verticalAlign=middle;resizable=0;points=[];" connectable="0" vertex="1" parent="gxrQh453CRDJ1SZHtIAR-108">
          <mxGeometry x="-0.6645" y="1" relative="1" as="geometry">
            <mxPoint x="25" as="offset" />
          </mxGeometry>
        </mxCell>
        <mxCell id="gxrQh453CRDJ1SZHtIAR-107" value="" style="rhombus;whiteSpace=wrap;html=1;" vertex="1" parent="1">
          <mxGeometry x="122" y="-49" width="40" height="40" as="geometry" />
        </mxCell>
        <mxCell id="gxrQh453CRDJ1SZHtIAR-111" value="" style="edgeStyle=orthogonalEdgeStyle;rounded=0;orthogonalLoop=1;jettySize=auto;html=1;entryX=0.5;entryY=0;entryDx=0;entryDy=0;endArrow=none;endFill=0;" edge="1" parent="1" source="g2xsP6k9ulPOgVXJOia_-8" target="gxrQh453CRDJ1SZHtIAR-106">
          <mxGeometry relative="1" as="geometry">
            <mxPoint x="45" y="453" as="sourcePoint" />
            <mxPoint x="400" y="560" as="targetPoint" />
            <Array as="points">
              <mxPoint x="45" y="476" />
              <mxPoint x="212" y="476" />
            </Array>
          </mxGeometry>
        </mxCell>
        <mxCell id="gxrQh453CRDJ1SZHtIAR-113" value="N" style="edgeLabel;html=1;align=center;verticalAlign=middle;resizable=0;points=[];" connectable="0" vertex="1" parent="gxrQh453CRDJ1SZHtIAR-111">
          <mxGeometry x="-0.7097" y="1" relative="1" as="geometry">
            <mxPoint as="offset" />
          </mxGeometry>
        </mxCell>
        <mxCell id="gxrQh453CRDJ1SZHtIAR-106" value="" style="rhombus;whiteSpace=wrap;html=1;" vertex="1" parent="1">
          <mxGeometry x="191" y="492" width="40" height="40" as="geometry" />
        </mxCell>
        <mxCell id="gxrQh453CRDJ1SZHtIAR-5" style="edgeStyle=orthogonalEdgeStyle;rounded=0;orthogonalLoop=1;jettySize=auto;html=1;entryX=1;entryY=0.5;entryDx=0;entryDy=0;endArrow=none;endFill=0;startArrow=none;startFill=0;" edge="1" parent="1" source="gxrQh453CRDJ1SZHtIAR-48" target="g2xsP6k9ulPOgVXJOia_-7">
          <mxGeometry relative="1" as="geometry" />
        </mxCell>
        <mxCell id="j0MbrSx7gmbUQMFczRcB-27" value="N" style="edgeLabel;html=1;align=center;verticalAlign=middle;resizable=0;points=[];" connectable="0" vertex="1" parent="gxrQh453CRDJ1SZHtIAR-5">
          <mxGeometry x="0.7631" y="-1" relative="1" as="geometry">
            <mxPoint as="offset" />
          </mxGeometry>
        </mxCell>
        <mxCell id="SztQCZqe5MYCLofAgVz8-27" value="" style="edgeStyle=orthogonalEdgeStyle;rounded=0;orthogonalLoop=1;jettySize=auto;html=1;entryX=0;entryY=0.5;entryDx=0;entryDy=0;endArrow=none;endFill=0;curved=1;" edge="1" parent="1" source="SztQCZqe5MYCLofAgVz8-26" target="rBqYLypj0LlrX5aWcThq-7">
          <mxGeometry relative="1" as="geometry">
            <mxPoint x="-468" y="124" as="targetPoint" />
            <Array as="points">
              <mxPoint x="-498" y="138" />
              <mxPoint x="-474" y="138" />
              <mxPoint x="-474" y="122" />
            </Array>
          </mxGeometry>
        </mxCell>
        <mxCell id="SztQCZqe5MYCLofAgVz8-26" value="qtd_quartos" style="ellipse;whiteSpace=wrap;html=1;align=center;" vertex="1" parent="1">
          <mxGeometry x="-560" y="94" width="69" height="40" as="geometry" />
        </mxCell>
        <mxCell id="SztQCZqe5MYCLofAgVz8-36" style="edgeStyle=orthogonalEdgeStyle;rounded=0;orthogonalLoop=1;jettySize=auto;html=1;exitX=0.5;exitY=0;exitDx=0;exitDy=0;entryX=0.415;entryY=0.991;entryDx=0;entryDy=0;entryPerimeter=0;endArrow=none;endFill=0;curved=1;" edge="1" parent="1" source="SztQCZqe5MYCLofAgVz8-28" target="rBqYLypj0LlrX5aWcThq-7">
          <mxGeometry relative="1" as="geometry" />
        </mxCell>
        <mxCell id="SztQCZqe5MYCLofAgVz8-28" value="qtd_suites" style="ellipse;whiteSpace=wrap;html=1;align=center;" vertex="1" parent="1">
          <mxGeometry x="-494" y="227" width="60" height="29" as="geometry" />
        </mxCell>
        <mxCell id="SztQCZqe5MYCLofAgVz8-38" style="edgeStyle=orthogonalEdgeStyle;rounded=0;orthogonalLoop=1;jettySize=auto;html=1;exitX=0.5;exitY=0;exitDx=0;exitDy=0;entryX=0.715;entryY=1.014;entryDx=0;entryDy=0;entryPerimeter=0;endArrow=none;endFill=0;curved=1;" edge="1" parent="1" source="SztQCZqe5MYCLofAgVz8-29" target="rBqYLypj0LlrX5aWcThq-7">
          <mxGeometry relative="1" as="geometry" />
        </mxCell>
        <mxCell id="SztQCZqe5MYCLofAgVz8-29" value="qtd_sala_e" style="ellipse;whiteSpace=wrap;html=1;align=center;" vertex="1" parent="1">
          <mxGeometry x="-404" y="221" width="60" height="33" as="geometry" />
        </mxCell>
        <mxCell id="SztQCZqe5MYCLofAgVz8-96" style="edgeStyle=orthogonalEdgeStyle;rounded=0;orthogonalLoop=1;jettySize=auto;html=1;exitX=1;exitY=0.5;exitDx=0;exitDy=0;entryX=0.184;entryY=1.005;entryDx=0;entryDy=0;entryPerimeter=0;curved=1;endArrow=none;endFill=0;" edge="1" parent="1" source="SztQCZqe5MYCLofAgVz8-30" target="rBqYLypj0LlrX5aWcThq-7">
          <mxGeometry relative="1" as="geometry" />
        </mxCell>
        <mxCell id="SztQCZqe5MYCLofAgVz8-30" value="vagas_garagem" style="ellipse;whiteSpace=wrap;html=1;align=center;" vertex="1" parent="1">
          <mxGeometry x="-569" y="160" width="94" height="40" as="geometry" />
        </mxCell>
        <mxCell id="rBqYLypj0LlrX5aWcThq-41" style="edgeStyle=orthogonalEdgeStyle;rounded=0;orthogonalLoop=1;jettySize=auto;html=1;exitX=0.5;exitY=1;exitDx=0;exitDy=0;" edge="1" parent="1" source="rBqYLypj0LlrX5aWcThq-40" target="rBqYLypj0LlrX5aWcThq-40">
          <mxGeometry relative="1" as="geometry" />
        </mxCell>
        <mxCell id="rBqYLypj0LlrX5aWcThq-43" value="UF" style="ellipse;whiteSpace=wrap;html=1;align=center;" vertex="1" parent="1">
          <mxGeometry x="508" y="184" width="80" height="24" as="geometry" />
        </mxCell>
        <mxCell id="LBeVLWIl04Jx7ls1Goi7-34" value="&lt;u&gt;id&lt;/u&gt;" style="ellipse;whiteSpace=wrap;html=1;align=center;" vertex="1" parent="1">
          <mxGeometry x="681" y="497" width="69" height="40" as="geometry" />
        </mxCell>
        <mxCell id="LBeVLWIl04Jx7ls1Goi7-19" value="valor" style="ellipse;whiteSpace=wrap;html=1;align=center;" vertex="1" parent="1">
          <mxGeometry x="210" y="617" width="69" height="40" as="geometry" />
        </mxCell>
        <mxCell id="SztQCZqe5MYCLofAgVz8-40" value="descricao" style="ellipse;whiteSpace=wrap;html=1;align=center;" vertex="1" parent="1">
          <mxGeometry x="-384" y="34" width="53" height="34" as="geometry" />
        </mxCell>
        <mxCell id="SztQCZqe5MYCLofAgVz8-32" value="armario" style="ellipse;whiteSpace=wrap;html=1;align=center;" vertex="1" parent="1">
          <mxGeometry x="-326.5" y="200" width="47" height="40" as="geometry" />
        </mxCell>
        <mxCell id="LBeVLWIl04Jx7ls1Goi7-23" value="data" style="ellipse;whiteSpace=wrap;html=1;align=center;" vertex="1" parent="1">
          <mxGeometry x="-103" y="349" width="69" height="40" as="geometry" />
        </mxCell>
        <mxCell id="gxrQh453CRDJ1SZHtIAR-118" value="&lt;b&gt;&lt;u&gt;id&lt;/u&gt;&lt;/b&gt;" style="ellipse;whiteSpace=wrap;html=1;align=center;rotation=0;" vertex="1" parent="1">
          <mxGeometry x="838" y="-588" width="69" height="40" as="geometry" />
        </mxCell>
        <mxCell id="LBeVLWIl04Jx7ls1Goi7-4" style="edgeStyle=orthogonalEdgeStyle;rounded=0;orthogonalLoop=1;jettySize=auto;html=1;entryX=0.25;entryY=1;entryDx=0;entryDy=0;endArrow=none;endFill=0;curved=1;" edge="1" parent="1" source="LBeVLWIl04Jx7ls1Goi7-2" target="gxrQh453CRDJ1SZHtIAR-1">
          <mxGeometry relative="1" as="geometry" />
        </mxCell>
        <mxCell id="LBeVLWIl04Jx7ls1Goi7-8" style="edgeStyle=orthogonalEdgeStyle;rounded=0;orthogonalLoop=1;jettySize=auto;html=1;exitX=0.5;exitY=0;exitDx=0;exitDy=0;entryX=0.655;entryY=0.975;entryDx=0;entryDy=0;entryPerimeter=0;curved=1;endArrow=none;endFill=0;" edge="1" parent="1" source="LBeVLWIl04Jx7ls1Goi7-6" target="gxrQh453CRDJ1SZHtIAR-1">
          <mxGeometry relative="1" as="geometry" />
        </mxCell>
        <mxCell id="SztQCZqe5MYCLofAgVz8-84" value="portaria" style="ellipse;whiteSpace=wrap;html=1;align=center;" vertex="1" parent="1">
          <mxGeometry x="-692" y="41" width="48" height="45" as="geometry" />
        </mxCell>
        <mxCell id="SztQCZqe5MYCLofAgVz8-51" value="" style="edgeStyle=orthogonalEdgeStyle;rounded=0;orthogonalLoop=1;jettySize=auto;html=1;entryX=0.008;entryY=0.9;entryDx=0;entryDy=0;endArrow=none;endFill=0;entryPerimeter=0;curved=1;" edge="1" parent="1" source="SztQCZqe5MYCLofAgVz8-52" target="rBqYLypj0LlrX5aWcThq-8">
          <mxGeometry relative="1" as="geometry">
            <mxPoint x="-996" y="141" as="targetPoint" />
          </mxGeometry>
        </mxCell>
        <mxCell id="SztQCZqe5MYCLofAgVz8-53" style="edgeStyle=orthogonalEdgeStyle;rounded=0;orthogonalLoop=1;jettySize=auto;html=1;exitX=0.5;exitY=0;exitDx=0;exitDy=0;entryX=0.5;entryY=1;entryDx=0;entryDy=0;endArrow=none;endFill=0;curved=1;" edge="1" parent="1" source="SztQCZqe5MYCLofAgVz8-54" target="rBqYLypj0LlrX5aWcThq-8">
          <mxGeometry relative="1" as="geometry">
            <mxPoint x="-946.2" y="170.46000000000004" as="targetPoint" />
          </mxGeometry>
        </mxCell>
        <mxCell id="SztQCZqe5MYCLofAgVz8-79" style="edgeStyle=orthogonalEdgeStyle;rounded=0;orthogonalLoop=1;jettySize=auto;html=1;entryX=1;entryY=0.5;entryDx=0;entryDy=0;endArrow=none;endFill=0;curved=1;" edge="1" parent="1" source="SztQCZqe5MYCLofAgVz8-78" target="rBqYLypj0LlrX5aWcThq-8">
          <mxGeometry relative="1" as="geometry" />
        </mxCell>
        <mxCell id="gxrQh453CRDJ1SZHtIAR-122" style="edgeStyle=orthogonalEdgeStyle;rounded=0;orthogonalLoop=1;jettySize=auto;html=1;entryX=1;entryY=0.5;entryDx=0;entryDy=0;endArrow=none;endFill=0;curved=1;" edge="1" parent="1" source="rBqYLypj0LlrX5aWcThq-38" target="rBqYLypj0LlrX5aWcThq-14">
          <mxGeometry relative="1" as="geometry" />
        </mxCell>
        <mxCell id="gxrQh453CRDJ1SZHtIAR-153" style="edgeStyle=orthogonalEdgeStyle;rounded=0;orthogonalLoop=1;jettySize=auto;html=1;entryX=0.25;entryY=0;entryDx=0;entryDy=0;curved=1;endArrow=none;endFill=0;" edge="1" parent="1" source="gxrQh453CRDJ1SZHtIAR-139" target="rBqYLypj0LlrX5aWcThq-13">
          <mxGeometry relative="1" as="geometry" />
        </mxCell>
        <mxCell id="SztQCZqe5MYCLofAgVz8-70" value="vagas_garagem" style="ellipse;whiteSpace=wrap;html=1;align=center;" vertex="1" parent="1">
          <mxGeometry x="-879" y="210" width="94" height="38" as="geometry" />
        </mxCell>
        <mxCell id="gxrQh453CRDJ1SZHtIAR-149" style="edgeStyle=orthogonalEdgeStyle;rounded=0;orthogonalLoop=1;jettySize=auto;html=1;entryX=0.25;entryY=0;entryDx=0;entryDy=0;curved=1;endArrow=none;endFill=0;" edge="1" parent="1" source="gxrQh453CRDJ1SZHtIAR-133" target="rBqYLypj0LlrX5aWcThq-13">
          <mxGeometry relative="1" as="geometry" />
        </mxCell>
        <mxCell id="rBqYLypj0LlrX5aWcThq-49" value="&lt;u&gt;id&lt;/u&gt;" style="ellipse;whiteSpace=wrap;html=1;align=center;" vertex="1" parent="1">
          <mxGeometry x="697" y="-182" width="80" height="24" as="geometry" />
        </mxCell>
        <mxCell id="gxrQh453CRDJ1SZHtIAR-152" style="edgeStyle=orthogonalEdgeStyle;rounded=0;orthogonalLoop=1;jettySize=auto;html=1;entryX=0.5;entryY=0;entryDx=0;entryDy=0;curved=1;endArrow=none;endFill=0;" edge="1" parent="1" source="gxrQh453CRDJ1SZHtIAR-136" target="rBqYLypj0LlrX5aWcThq-13">
          <mxGeometry relative="1" as="geometry" />
        </mxCell>
        <mxCell id="gxrQh453CRDJ1SZHtIAR-150" style="edgeStyle=orthogonalEdgeStyle;rounded=0;orthogonalLoop=1;jettySize=auto;html=1;entryX=1;entryY=0;entryDx=0;entryDy=0;curved=1;endArrow=none;endFill=0;" edge="1" parent="1" source="gxrQh453CRDJ1SZHtIAR-135" target="rBqYLypj0LlrX5aWcThq-13">
          <mxGeometry relative="1" as="geometry" />
        </mxCell>
        <mxCell id="gxrQh453CRDJ1SZHtIAR-144" style="edgeStyle=orthogonalEdgeStyle;rounded=0;orthogonalLoop=1;jettySize=auto;html=1;entryX=0.25;entryY=0;entryDx=0;entryDy=0;curved=1;endArrow=none;endFill=0;" edge="1" parent="1" source="gxrQh453CRDJ1SZHtIAR-131" target="rBqYLypj0LlrX5aWcThq-13">
          <mxGeometry relative="1" as="geometry" />
        </mxCell>
        <mxCell id="gxrQh453CRDJ1SZHtIAR-145" style="edgeStyle=orthogonalEdgeStyle;rounded=0;orthogonalLoop=1;jettySize=auto;html=1;entryX=0.5;entryY=0;entryDx=0;entryDy=0;curved=1;endArrow=none;endFill=0;" edge="1" parent="1" source="gxrQh453CRDJ1SZHtIAR-126" target="rBqYLypj0LlrX5aWcThq-13">
          <mxGeometry relative="1" as="geometry" />
        </mxCell>
        <mxCell id="gxrQh453CRDJ1SZHtIAR-151" style="edgeStyle=orthogonalEdgeStyle;rounded=0;orthogonalLoop=1;jettySize=auto;html=1;entryX=0.5;entryY=0;entryDx=0;entryDy=0;curved=1;endArrow=none;endFill=0;" edge="1" parent="1" source="gxrQh453CRDJ1SZHtIAR-137" target="rBqYLypj0LlrX5aWcThq-13">
          <mxGeometry relative="1" as="geometry" />
        </mxCell>
        <mxCell id="gxrQh453CRDJ1SZHtIAR-148" style="edgeStyle=orthogonalEdgeStyle;rounded=0;orthogonalLoop=1;jettySize=auto;html=1;entryX=0.75;entryY=0;entryDx=0;entryDy=0;curved=1;endArrow=none;endFill=0;" edge="1" parent="1" source="gxrQh453CRDJ1SZHtIAR-134" target="rBqYLypj0LlrX5aWcThq-13">
          <mxGeometry relative="1" as="geometry" />
        </mxCell>
        <mxCell id="gxrQh453CRDJ1SZHtIAR-141" style="edgeStyle=orthogonalEdgeStyle;rounded=0;orthogonalLoop=1;jettySize=auto;html=1;entryX=0;entryY=0.25;entryDx=0;entryDy=0;curved=1;endArrow=none;endFill=0;" edge="1" parent="1" source="gxrQh453CRDJ1SZHtIAR-123" target="rBqYLypj0LlrX5aWcThq-13">
          <mxGeometry relative="1" as="geometry" />
        </mxCell>
        <mxCell id="gxrQh453CRDJ1SZHtIAR-142" style="edgeStyle=orthogonalEdgeStyle;rounded=0;orthogonalLoop=1;jettySize=auto;html=1;entryX=0;entryY=0;entryDx=0;entryDy=0;curved=1;endArrow=none;endFill=0;" edge="1" parent="1" source="gxrQh453CRDJ1SZHtIAR-130" target="rBqYLypj0LlrX5aWcThq-13">
          <mxGeometry relative="1" as="geometry" />
        </mxCell>
        <mxCell id="gxrQh453CRDJ1SZHtIAR-147" style="edgeStyle=orthogonalEdgeStyle;rounded=0;orthogonalLoop=1;jettySize=auto;html=1;curved=1;endArrow=none;endFill=0;" edge="1" parent="1" source="gxrQh453CRDJ1SZHtIAR-132" target="rBqYLypj0LlrX5aWcThq-13">
          <mxGeometry relative="1" as="geometry" />
        </mxCell>
        <mxCell id="LBeVLWIl04Jx7ls1Goi7-54" value="dataInicio" style="ellipse;whiteSpace=wrap;html=1;align=center;rotation=0;" vertex="1" parent="1">
          <mxGeometry x="1096" y="486" width="69" height="40" as="geometry" />
        </mxCell>
        <mxCell id="SztQCZqe5MYCLofAgVz8-75" value="" style="edgeStyle=orthogonalEdgeStyle;rounded=0;orthogonalLoop=1;jettySize=auto;html=1;endArrow=none;endFill=0;curved=1;" edge="1" parent="1" source="SztQCZqe5MYCLofAgVz8-73" target="rBqYLypj0LlrX5aWcThq-8">
          <mxGeometry relative="1" as="geometry" />
        </mxCell>
        <mxCell id="gxrQh453CRDJ1SZHtIAR-131" value="telefone" style="ellipse;whiteSpace=wrap;html=1;align=center;rotation=0;" vertex="1" parent="1">
          <mxGeometry x="122" y="-722" width="69" height="40" as="geometry" />
        </mxCell>
        <mxCell id="LBeVLWIl04Jx7ls1Goi7-63" style="edgeStyle=orthogonalEdgeStyle;rounded=0;orthogonalLoop=1;jettySize=auto;html=1;exitX=0.5;exitY=1;exitDx=0;exitDy=0;entryX=0.5;entryY=0;entryDx=0;entryDy=0;endArrow=none;endFill=0;curved=1;" edge="1" parent="1" source="LBeVLWIl04Jx7ls1Goi7-61" target="rBqYLypj0LlrX5aWcThq-3">
          <mxGeometry relative="1" as="geometry" />
        </mxCell>
        <mxCell id="LBeVLWIl04Jx7ls1Goi7-61" value="tipoCobranca" style="ellipse;whiteSpace=wrap;html=1;align=center;rotation=0;" vertex="1" parent="1">
          <mxGeometry x="821" y="22" width="80" height="44" as="geometry" />
        </mxCell>
        <mxCell id="SztQCZqe5MYCLofAgVz8-42" value="qtd_sala_j" style="ellipse;whiteSpace=wrap;html=1;align=center;" vertex="1" parent="1">
          <mxGeometry x="-292" y="101" width="60" height="33" as="geometry" />
        </mxCell>
        <mxCell id="SztQCZqe5MYCLofAgVz8-61" style="edgeStyle=orthogonalEdgeStyle;rounded=0;orthogonalLoop=1;jettySize=auto;html=1;exitX=0;exitY=0;exitDx=0;exitDy=0;endArrow=none;endFill=0;entryX=1;entryY=0.5;entryDx=0;entryDy=0;curved=1;" edge="1" parent="1" source="SztQCZqe5MYCLofAgVz8-67" target="rBqYLypj0LlrX5aWcThq-8">
          <mxGeometry relative="1" as="geometry">
            <mxPoint x="-801" y="137" as="targetPoint" />
          </mxGeometry>
        </mxCell>
        <mxCell id="SztQCZqe5MYCLofAgVz8-66" value="armario" style="ellipse;whiteSpace=wrap;html=1;align=center;" vertex="1" parent="1">
          <mxGeometry x="-613" y="206" width="47" height="40" as="geometry" />
        </mxCell>
        <mxCell id="LBeVLWIl04Jx7ls1Goi7-53" value="numContrato" style="ellipse;whiteSpace=wrap;html=1;align=center;rotation=0;" vertex="1" parent="1">
          <mxGeometry x="915" y="492" width="77" height="40" as="geometry" />
        </mxCell>
        <mxCell id="LBeVLWIl04Jx7ls1Goi7-55" value="dataFim" style="ellipse;whiteSpace=wrap;html=1;align=center;rotation=0;" vertex="1" parent="1">
          <mxGeometry x="1073" y="327" width="69" height="40" as="geometry" />
        </mxCell>
        <mxCell id="SztQCZqe5MYCLofAgVz8-67" value="qtd_sala_j" style="ellipse;whiteSpace=wrap;html=1;align=center;" vertex="1" parent="1">
          <mxGeometry x="-640" y="132" width="60" height="33" as="geometry" />
        </mxCell>
        <mxCell id="SztQCZqe5MYCLofAgVz8-92" style="edgeStyle=orthogonalEdgeStyle;rounded=0;orthogonalLoop=1;jettySize=auto;html=1;exitX=0.5;exitY=0;exitDx=0;exitDy=0;entryX=0.42;entryY=0.987;entryDx=0;entryDy=0;entryPerimeter=0;curved=1;endArrow=none;endFill=0;" edge="1" parent="1" source="SztQCZqe5MYCLofAgVz8-87" target="rBqYLypj0LlrX5aWcThq-6">
          <mxGeometry relative="1" as="geometry" />
        </mxCell>
        <mxCell id="SztQCZqe5MYCLofAgVz8-87" value="qtd_comodos" style="ellipse;whiteSpace=wrap;html=1;align=center;" vertex="1" parent="1">
          <mxGeometry x="-211" y="174" width="75" height="40" as="geometry" />
        </mxCell>
        <mxCell id="SztQCZqe5MYCLofAgVz8-91" style="edgeStyle=orthogonalEdgeStyle;rounded=0;orthogonalLoop=1;jettySize=auto;html=1;exitX=0.5;exitY=0;exitDx=0;exitDy=0;entryX=0.837;entryY=0.996;entryDx=0;entryDy=0;entryPerimeter=0;endArrow=none;endFill=0;curved=1;" edge="1" parent="1" source="SztQCZqe5MYCLofAgVz8-88" target="rBqYLypj0LlrX5aWcThq-6">
          <mxGeometry relative="1" as="geometry" />
        </mxCell>
        <mxCell id="SztQCZqe5MYCLofAgVz8-88" value="qtd_banheiro" style="ellipse;whiteSpace=wrap;html=1;align=center;" vertex="1" parent="1">
          <mxGeometry x="-128" y="175" width="76" height="40" as="geometry" />
        </mxCell>
        <mxCell id="rBqYLypj0LlrX5aWcThq-61" value="Numero" style="ellipse;whiteSpace=wrap;html=1;align=center;" vertex="1" parent="1">
          <mxGeometry x="347.5" y="171" width="80" height="24" as="geometry" />
        </mxCell>
        <mxCell id="gxrQh453CRDJ1SZHtIAR-137" value="data_ingresso" style="ellipse;whiteSpace=wrap;html=1;align=center;rotation=0;" vertex="1" parent="1">
          <mxGeometry x="432" y="-607" width="113" height="40" as="geometry" />
        </mxCell>
        <mxCell id="gxrQh453CRDJ1SZHtIAR-133" value="complemento" style="ellipse;whiteSpace=wrap;html=1;align=center;rotation=0;" vertex="1" parent="1">
          <mxGeometry x="369" y="-715" width="107" height="40" as="geometry" />
        </mxCell>
        <mxCell id="LBeVLWIl04Jx7ls1Goi7-64" style="edgeStyle=orthogonalEdgeStyle;rounded=0;orthogonalLoop=1;jettySize=auto;html=1;entryX=0.75;entryY=0;entryDx=0;entryDy=0;endArrow=none;endFill=0;curved=1;" edge="1" parent="1" source="LBeVLWIl04Jx7ls1Goi7-62" target="rBqYLypj0LlrX5aWcThq-3">
          <mxGeometry relative="1" as="geometry" />
        </mxCell>
        <mxCell id="LBeVLWIl04Jx7ls1Goi7-62" value="valor" style="ellipse;whiteSpace=wrap;html=1;align=center;rotation=0;" vertex="1" parent="1">
          <mxGeometry x="999" y="68" width="69" height="40" as="geometry" />
        </mxCell>
        <mxCell id="LBeVLWIl04Jx7ls1Goi7-40" value="logradouro" style="ellipse;whiteSpace=wrap;html=1;align=center;rotation=0;" vertex="1" parent="1">
          <mxGeometry x="773.67" y="476" width="69" height="40" as="geometry" />
        </mxCell>
        <mxCell id="LBeVLWIl04Jx7ls1Goi7-20" style="edgeStyle=orthogonalEdgeStyle;rounded=0;orthogonalLoop=1;jettySize=auto;html=1;curved=1;endArrow=none;endFill=0;" edge="1" parent="1" source="LBeVLWIl04Jx7ls1Goi7-19" target="g2xsP6k9ulPOgVXJOia_-9">
          <mxGeometry relative="1" as="geometry" />
        </mxCell>
        <mxCell id="rBqYLypj0LlrX5aWcThq-39" value="salario_base" style="ellipse;whiteSpace=wrap;html=1;align=center;rotation=0;" vertex="1" parent="1">
          <mxGeometry x="884" y="-458" width="97" height="40" as="geometry" />
        </mxCell>
        <mxCell id="LBeVLWIl04Jx7ls1Goi7-46" style="edgeStyle=orthogonalEdgeStyle;rounded=0;orthogonalLoop=1;jettySize=auto;html=1;entryX=1;entryY=0.25;entryDx=0;entryDy=0;curved=1;endArrow=none;endFill=0;" edge="1" parent="1" source="LBeVLWIl04Jx7ls1Goi7-39" target="g2xsP6k9ulPOgVXJOia_-1">
          <mxGeometry relative="1" as="geometry" />
        </mxCell>
        <mxCell id="LBeVLWIl04Jx7ls1Goi7-39" value="telefone" style="ellipse;whiteSpace=wrap;html=1;align=center;rotation=0;" vertex="1" parent="1">
          <mxGeometry x="821" y="349" width="59" height="36" as="geometry" />
        </mxCell>
        <mxCell id="SztQCZqe5MYCLofAgVz8-31" value="area" style="ellipse;whiteSpace=wrap;html=1;align=center;" vertex="1" parent="1">
          <mxGeometry x="-491" y="43" width="42" height="40" as="geometry" />
        </mxCell>
        <mxCell id="rBqYLypj0LlrX5aWcThq-56" value="Descricao" style="ellipse;whiteSpace=wrap;html=1;align=center;" vertex="1" parent="1">
          <mxGeometry x="187" y="-93" width="80" height="24" as="geometry" />
        </mxCell>
        <mxCell id="gxrQh453CRDJ1SZHtIAR-130" value="nome" style="ellipse;whiteSpace=wrap;html=1;align=center;rotation=0;" vertex="1" parent="1">
          <mxGeometry x="96" y="-657" width="69" height="40" as="geometry" />
        </mxCell>
        <mxCell id="SztQCZqe5MYCLofAgVz8-56" value="qtd_sala_e" style="ellipse;whiteSpace=wrap;html=1;align=center;" vertex="1" parent="1">
          <mxGeometry x="-704" y="248" width="60" height="33" as="geometry" />
        </mxCell>
        <mxCell id="LBeVLWIl04Jx7ls1Goi7-35" value="cpf" style="ellipse;whiteSpace=wrap;html=1;align=center;rotation=0;" vertex="1" parent="1">
          <mxGeometry x="717" y="309" width="69" height="40" as="geometry" />
        </mxCell>
        <mxCell id="SztQCZqe5MYCLofAgVz8-43" style="edgeStyle=orthogonalEdgeStyle;rounded=0;orthogonalLoop=1;jettySize=auto;html=1;exitX=0;exitY=0;exitDx=0;exitDy=0;entryX=1.001;entryY=0.688;entryDx=0;entryDy=0;entryPerimeter=0;endArrow=none;endFill=0;curved=1;" edge="1" parent="1" source="SztQCZqe5MYCLofAgVz8-42" target="rBqYLypj0LlrX5aWcThq-7">
          <mxGeometry relative="1" as="geometry" />
        </mxCell>
        <mxCell id="LBeVLWIl04Jx7ls1Goi7-6" value="descricao" style="ellipse;whiteSpace=wrap;html=1;align=center;" vertex="1" parent="1">
          <mxGeometry x="-383" y="457" width="69" height="40" as="geometry" />
        </mxCell>
        <mxCell id="gxrQh453CRDJ1SZHtIAR-121" style="edgeStyle=orthogonalEdgeStyle;rounded=0;orthogonalLoop=1;jettySize=auto;html=1;entryX=0.75;entryY=1;entryDx=0;entryDy=0;endArrow=none;endFill=0;curved=1;" edge="1" parent="1" source="rBqYLypj0LlrX5aWcThq-39" target="rBqYLypj0LlrX5aWcThq-14">
          <mxGeometry relative="1" as="geometry" />
        </mxCell>
        <mxCell id="rBqYLypj0LlrX5aWcThq-58" value="&lt;u&gt;id&lt;/u&gt;" style="ellipse;whiteSpace=wrap;html=1;align=center;" vertex="1" parent="1">
          <mxGeometry x="340" y="54" width="80" height="24" as="geometry" />
        </mxCell>
        <mxCell id="LBeVLWIl04Jx7ls1Goi7-52" style="edgeStyle=orthogonalEdgeStyle;rounded=0;orthogonalLoop=1;jettySize=auto;html=1;entryX=0.25;entryY=1;entryDx=0;entryDy=0;curved=1;endArrow=none;endFill=0;" edge="1" parent="1" source="LBeVLWIl04Jx7ls1Goi7-38" target="g2xsP6k9ulPOgVXJOia_-1">
          <mxGeometry relative="1" as="geometry" />
        </mxCell>
        <mxCell id="rBqYLypj0LlrX5aWcThq-92" style="edgeStyle=orthogonalEdgeStyle;rounded=0;orthogonalLoop=1;jettySize=auto;html=1;endArrow=none;endFill=0;curved=1;" edge="1" parent="1" source="gxrQh453CRDJ1SZHtIAR-164">
          <mxGeometry relative="1" as="geometry">
            <mxPoint x="-287" y="-347" as="targetPoint" />
          </mxGeometry>
        </mxCell>
        <mxCell id="gxrQh453CRDJ1SZHtIAR-164" value="telefone" style="ellipse;whiteSpace=wrap;html=1;align=center;rotation=0;" vertex="1" parent="1">
          <mxGeometry x="-245" y="-418" width="69" height="40" as="geometry" />
        </mxCell>
        <mxCell id="SztQCZqe5MYCLofAgVz8-39" style="edgeStyle=orthogonalEdgeStyle;rounded=0;orthogonalLoop=1;jettySize=auto;html=1;exitX=0;exitY=0;exitDx=0;exitDy=0;endArrow=none;endFill=0;curved=1;entryX=0.97;entryY=0.962;entryDx=0;entryDy=0;entryPerimeter=0;" edge="1" parent="1" source="SztQCZqe5MYCLofAgVz8-32" target="rBqYLypj0LlrX5aWcThq-7">
          <mxGeometry relative="1" as="geometry">
            <mxPoint x="-342" y="143" as="targetPoint" />
          </mxGeometry>
        </mxCell>
        <mxCell id="rBqYLypj0LlrX5aWcThq-94" style="edgeStyle=orthogonalEdgeStyle;rounded=0;orthogonalLoop=1;jettySize=auto;html=1;entryX=0.25;entryY=1;entryDx=0;entryDy=0;endArrow=none;endFill=0;curved=1;" edge="1" parent="1" source="gxrQh453CRDJ1SZHtIAR-165" target="rBqYLypj0LlrX5aWcThq-15">
          <mxGeometry relative="1" as="geometry">
            <Array as="points">
              <mxPoint x="-350" y="-250" />
            </Array>
          </mxGeometry>
        </mxCell>
        <mxCell id="SztQCZqe5MYCLofAgVz8-98" value="Terreno" style="rounded=1;whiteSpace=wrap;html=1;" vertex="1" parent="1">
          <mxGeometry x="-780" y="-171" width="120" height="60" as="geometry" />
        </mxCell>
        <mxCell id="rBqYLypj0LlrX5aWcThq-87" style="edgeStyle=orthogonalEdgeStyle;rounded=0;orthogonalLoop=1;jettySize=auto;html=1;endArrow=none;endFill=0;curved=1;" edge="1" parent="1" source="gxrQh453CRDJ1SZHtIAR-166" target="rBqYLypj0LlrX5aWcThq-15">
          <mxGeometry relative="1" as="geometry" />
        </mxCell>
        <mxCell id="SztQCZqe5MYCLofAgVz8-104" style="edgeStyle=orthogonalEdgeStyle;rounded=0;orthogonalLoop=1;jettySize=auto;html=1;entryX=-0.007;entryY=0.409;entryDx=0;entryDy=0;entryPerimeter=0;curved=1;endArrow=none;endFill=0;" edge="1" parent="1" source="SztQCZqe5MYCLofAgVz8-99" target="SztQCZqe5MYCLofAgVz8-98">
          <mxGeometry relative="1" as="geometry" />
        </mxCell>
        <mxCell id="SztQCZqe5MYCLofAgVz8-99" value="area" style="ellipse;whiteSpace=wrap;html=1;align=center;" vertex="1" parent="1">
          <mxGeometry x="-868" y="-194" width="42" height="40" as="geometry" />
        </mxCell>
        <mxCell id="SztQCZqe5MYCLofAgVz8-103" style="edgeStyle=orthogonalEdgeStyle;rounded=0;orthogonalLoop=1;jettySize=auto;html=1;entryX=0.005;entryY=0.667;entryDx=0;entryDy=0;entryPerimeter=0;curved=1;endArrow=none;endFill=0;" edge="1" parent="1" source="SztQCZqe5MYCLofAgVz8-100" target="SztQCZqe5MYCLofAgVz8-98">
          <mxGeometry relative="1" as="geometry" />
        </mxCell>
        <mxCell id="SztQCZqe5MYCLofAgVz8-100" value="comprimento" style="ellipse;whiteSpace=wrap;html=1;align=center;" vertex="1" parent="1">
          <mxGeometry x="-907" y="-127" width="81" height="40" as="geometry" />
        </mxCell>
        <mxCell id="rBqYLypj0LlrX5aWcThq-85" style="edgeStyle=orthogonalEdgeStyle;rounded=0;orthogonalLoop=1;jettySize=auto;html=1;entryX=0;entryY=0.25;entryDx=0;entryDy=0;endArrow=none;endFill=0;curved=1;" edge="1" parent="1" source="gxrQh453CRDJ1SZHtIAR-167" target="rBqYLypj0LlrX5aWcThq-15">
          <mxGeometry relative="1" as="geometry">
            <mxPoint x="-390" y="-322" as="targetPoint" />
          </mxGeometry>
        </mxCell>
        <mxCell id="SztQCZqe5MYCLofAgVz8-102" style="edgeStyle=orthogonalEdgeStyle;rounded=0;orthogonalLoop=1;jettySize=auto;html=1;exitX=1;exitY=0;exitDx=0;exitDy=0;entryX=0.224;entryY=0.996;entryDx=0;entryDy=0;entryPerimeter=0;curved=1;endArrow=none;endFill=0;" edge="1" parent="1" source="SztQCZqe5MYCLofAgVz8-101" target="SztQCZqe5MYCLofAgVz8-98">
          <mxGeometry relative="1" as="geometry" />
        </mxCell>
        <mxCell id="SztQCZqe5MYCLofAgVz8-101" value="largura" style="ellipse;whiteSpace=wrap;html=1;align=center;" vertex="1" parent="1">
          <mxGeometry x="-812" y="-80" width="42" height="40" as="geometry" />
        </mxCell>
        <mxCell id="gxrQh453CRDJ1SZHtIAR-167" value="complemento" style="ellipse;whiteSpace=wrap;html=1;align=center;rotation=0;" vertex="1" parent="1">
          <mxGeometry x="-487" y="-414" width="107" height="40" as="geometry" />
        </mxCell>
        <mxCell id="rBqYLypj0LlrX5aWcThq-88" style="edgeStyle=orthogonalEdgeStyle;rounded=0;orthogonalLoop=1;jettySize=auto;html=1;endArrow=none;endFill=0;curved=1;" edge="1" parent="1" source="gxrQh453CRDJ1SZHtIAR-168">
          <mxGeometry relative="1" as="geometry">
            <mxPoint x="-375" y="-300" as="targetPoint" />
          </mxGeometry>
        </mxCell>
        <mxCell id="gxrQh453CRDJ1SZHtIAR-168" value="numero" style="ellipse;whiteSpace=wrap;html=1;align=center;rotation=0;" vertex="1" parent="1">
          <mxGeometry x="-632" y="-303" width="69" height="40" as="geometry" />
        </mxCell>
        <mxCell id="gxrQh453CRDJ1SZHtIAR-160" style="edgeStyle=orthogonalEdgeStyle;rounded=0;orthogonalLoop=1;jettySize=auto;html=1;entryX=0.25;entryY=0;entryDx=0;entryDy=0;curved=1;endArrow=none;endFill=0;" edge="1" parent="1" source="gxrQh453CRDJ1SZHtIAR-159" target="g2xsP6k9ulPOgVXJOia_-3">
          <mxGeometry relative="1" as="geometry" />
        </mxCell>
        <mxCell id="gxrQh453CRDJ1SZHtIAR-159" value="&lt;b&gt;&lt;u&gt;id&lt;/u&gt;&lt;/b&gt;" style="ellipse;whiteSpace=wrap;html=1;align=center;rotation=0;" vertex="1" parent="1">
          <mxGeometry x="-195" y="-255" width="67" height="40" as="geometry" />
        </mxCell>
        <mxCell id="gxrQh453CRDJ1SZHtIAR-139" value="salario" style="ellipse;whiteSpace=wrap;html=1;align=center;rotation=0;" vertex="1" parent="1">
          <mxGeometry x="570" y="-647" width="69" height="40" as="geometry" />
        </mxCell>
        <mxCell id="SztQCZqe5MYCLofAgVz8-93" style="edgeStyle=orthogonalEdgeStyle;rounded=0;orthogonalLoop=1;jettySize=auto;html=1;exitX=0.5;exitY=0;exitDx=0;exitDy=0;entryX=0.197;entryY=0.983;entryDx=0;entryDy=0;entryPerimeter=0;curved=1;endArrow=none;endFill=0;" edge="1" parent="1" source="SztQCZqe5MYCLofAgVz8-70" target="rBqYLypj0LlrX5aWcThq-8">
          <mxGeometry relative="1" as="geometry" />
        </mxCell>
        <mxCell id="LBeVLWIl04Jx7ls1Goi7-66" style="edgeStyle=orthogonalEdgeStyle;rounded=0;orthogonalLoop=1;jettySize=auto;html=1;entryX=0.999;entryY=0.567;entryDx=0;entryDy=0;entryPerimeter=0;endArrow=none;endFill=0;curved=1;exitX=0.5;exitY=1;exitDx=0;exitDy=0;" edge="1" parent="1" source="rBqYLypj0LlrX5aWcThq-49" target="g2xsP6k9ulPOgVXJOia_-5">
          <mxGeometry relative="1" as="geometry" />
        </mxCell>
        <mxCell id="LBeVLWIl04Jx7ls1Goi7-38" value="nome" style="ellipse;whiteSpace=wrap;html=1;align=center;rotation=0;" vertex="1" parent="1">
          <mxGeometry x="593" y="488" width="69" height="40" as="geometry" />
        </mxCell>
        <mxCell id="rBqYLypj0LlrX5aWcThq-98" style="edgeStyle=orthogonalEdgeStyle;rounded=0;orthogonalLoop=1;jettySize=auto;html=1;" edge="1" parent="1" source="LBeVLWIl04Jx7ls1Goi7-67">
          <mxGeometry relative="1" as="geometry">
            <mxPoint x="-350" y="-279" as="targetPoint" />
          </mxGeometry>
        </mxCell>
        <mxCell id="LBeVLWIl04Jx7ls1Goi7-67" value="nome" style="ellipse;whiteSpace=wrap;html=1;align=center;rotation=0;" vertex="1" parent="1">
          <mxGeometry x="-475" y="-228" width="69" height="40" as="geometry" />
        </mxCell>
        <mxCell id="SztQCZqe5MYCLofAgVz8-86" value="area" style="ellipse;whiteSpace=wrap;html=1;align=center;" vertex="1" parent="1">
          <mxGeometry x="-52" y="137.5" width="42" height="40" as="geometry" />
        </mxCell>
        <mxCell id="SztQCZqe5MYCLofAgVz8-77" value="andar" style="ellipse;whiteSpace=wrap;html=1;align=center;" vertex="1" parent="1">
          <mxGeometry x="-787" y="28" width="42" height="40" as="geometry" />
        </mxCell>
        <mxCell id="gxrQh453CRDJ1SZHtIAR-120" style="edgeStyle=orthogonalEdgeStyle;rounded=0;orthogonalLoop=1;jettySize=auto;html=1;entryX=0.75;entryY=0;entryDx=0;entryDy=0;endArrow=none;endFill=0;curved=1;" edge="1" parent="1" source="gxrQh453CRDJ1SZHtIAR-118" target="rBqYLypj0LlrX5aWcThq-14">
          <mxGeometry relative="1" as="geometry" />
        </mxCell>
        <mxCell id="rBqYLypj0LlrX5aWcThq-40" value="&lt;u&gt;id&lt;/u&gt;" style="ellipse;whiteSpace=wrap;html=1;align=center;" vertex="1" parent="1">
          <mxGeometry x="443" y="147" width="80" height="24" as="geometry" />
        </mxCell>
        <mxCell id="gxrQh453CRDJ1SZHtIAR-171" value="" style="edgeStyle=orthogonalEdgeStyle;rounded=0;orthogonalLoop=1;jettySize=auto;html=1;exitX=1;exitY=0.5;exitDx=0;exitDy=0;entryX=0.5;entryY=1;entryDx=0;entryDy=0;endArrow=none;endFill=0;" edge="1" parent="1" source="rBqYLypj0LlrX5aWcThq-5" target="gxrQh453CRDJ1SZHtIAR-170">
          <mxGeometry relative="1" as="geometry">
            <mxPoint x="353" y="120" as="sourcePoint" />
            <mxPoint x="290" y="-485" as="targetPoint" />
            <Array as="points">
              <mxPoint x="353" y="125" />
              <mxPoint x="462" y="125" />
            </Array>
          </mxGeometry>
        </mxCell>
        <mxCell id="gxrQh453CRDJ1SZHtIAR-175" value="1" style="edgeLabel;html=1;align=center;verticalAlign=middle;resizable=0;points=[];" vertex="1" connectable="0" parent="gxrQh453CRDJ1SZHtIAR-171">
          <mxGeometry x="-0.8877" relative="1" as="geometry">
            <mxPoint as="offset" />
          </mxGeometry>
        </mxCell>
        <mxCell id="LBeVLWIl04Jx7ls1Goi7-68" value="" style="edgeStyle=orthogonalEdgeStyle;rounded=0;orthogonalLoop=1;jettySize=auto;html=1;" edge="1" parent="1" source="gxrQh453CRDJ1SZHtIAR-170" target="g2xsP6k9ulPOgVXJOia_-5">
          <mxGeometry relative="1" as="geometry" />
        </mxCell>
        <mxCell id="gxrQh453CRDJ1SZHtIAR-170" value="" style="rhombus;whiteSpace=wrap;html=1;" vertex="1" parent="1">
          <mxGeometry x="440.5" y="-226" width="43.75" height="40" as="geometry" />
        </mxCell>
        <mxCell id="LBeVLWIl04Jx7ls1Goi7-51" style="edgeStyle=orthogonalEdgeStyle;rounded=0;orthogonalLoop=1;jettySize=auto;html=1;entryX=0.852;entryY=1.035;entryDx=0;entryDy=0;entryPerimeter=0;endArrow=none;endFill=0;curved=1;" edge="1" parent="1" source="LBeVLWIl04Jx7ls1Goi7-40" target="g2xsP6k9ulPOgVXJOia_-1">
          <mxGeometry relative="1" as="geometry" />
        </mxCell>
        <mxCell id="SztQCZqe5MYCLofAgVz8-44" value="area" style="ellipse;whiteSpace=wrap;html=1;align=center;" vertex="1" parent="1">
          <mxGeometry x="-491" y="43" width="42" height="40" as="geometry" />
        </mxCell>
        <mxCell id="SztQCZqe5MYCLofAgVz8-37" style="edgeStyle=orthogonalEdgeStyle;rounded=0;orthogonalLoop=1;jettySize=auto;html=1;exitX=1;exitY=1;exitDx=0;exitDy=0;entryX=0.162;entryY=0.002;entryDx=0;entryDy=0;entryPerimeter=0;endArrow=none;endFill=0;curved=1;" edge="1" parent="1" source="SztQCZqe5MYCLofAgVz8-31" target="rBqYLypj0LlrX5aWcThq-7">
          <mxGeometry relative="1" as="geometry" />
        </mxCell>
        <mxCell id="SztQCZqe5MYCLofAgVz8-41" style="edgeStyle=orthogonalEdgeStyle;rounded=0;orthogonalLoop=1;jettySize=auto;html=1;exitX=0.5;exitY=1;exitDx=0;exitDy=0;entryX=0.75;entryY=0;entryDx=0;entryDy=0;endArrow=none;endFill=0;curved=1;" edge="1" parent="1" source="SztQCZqe5MYCLofAgVz8-40" target="rBqYLypj0LlrX5aWcThq-7">
          <mxGeometry relative="1" as="geometry" />
        </mxCell>
        <mxCell id="SztQCZqe5MYCLofAgVz8-63" value="area" style="ellipse;whiteSpace=wrap;html=1;align=center;" vertex="1" parent="1">
          <mxGeometry x="-832" y="60" width="42" height="40" as="geometry" />
        </mxCell>
        <mxCell id="SztQCZqe5MYCLofAgVz8-52" value="qtd_quartos" style="ellipse;whiteSpace=wrap;html=1;align=center;" vertex="1" parent="1">
          <mxGeometry x="-888" y="146" width="69" height="40" as="geometry" />
        </mxCell>
        <mxCell id="rBqYLypj0LlrX5aWcThq-79" style="edgeStyle=orthogonalEdgeStyle;rounded=0;orthogonalLoop=1;jettySize=auto;html=1;entryX=0;entryY=0.25;entryDx=0;entryDy=0;endArrow=none;endFill=0;curved=1;" edge="1" parent="1" source="rBqYLypj0LlrX5aWcThq-54" target="g2xsP6k9ulPOgVXJOia_-7">
          <mxGeometry relative="1" as="geometry" />
        </mxCell>
        <mxCell id="gxrQh453CRDJ1SZHtIAR-135" value="celular" style="ellipse;whiteSpace=wrap;html=1;align=center;rotation=0;" vertex="1" parent="1">
          <mxGeometry x="397" y="-652" width="69" height="40" as="geometry" />
        </mxCell>
        <mxCell id="rBqYLypj0LlrX5aWcThq-82" style="edgeStyle=orthogonalEdgeStyle;rounded=0;orthogonalLoop=1;jettySize=auto;html=1;entryX=1;entryY=0.25;entryDx=0;entryDy=0;endArrow=none;endFill=0;curved=1;" edge="1" parent="1" source="rBqYLypj0LlrX5aWcThq-58" target="rBqYLypj0LlrX5aWcThq-5">
          <mxGeometry relative="1" as="geometry" />
        </mxCell>
        <mxCell id="LBeVLWIl04Jx7ls1Goi7-11" value="&lt;u&gt;id&lt;/u&gt;" style="ellipse;whiteSpace=wrap;html=1;align=center;" vertex="1" parent="1">
          <mxGeometry x="313" y="672" width="69" height="40" as="geometry" />
        </mxCell>
        <mxCell id="LBeVLWIl04Jx7ls1Goi7-59" style="edgeStyle=orthogonalEdgeStyle;rounded=0;orthogonalLoop=1;jettySize=auto;html=1;entryX=0.807;entryY=0.036;entryDx=0;entryDy=0;entryPerimeter=0;curved=1;endArrow=none;endFill=0;" edge="1" parent="1" source="LBeVLWIl04Jx7ls1Goi7-55" target="g2xsP6k9ulPOgVXJOia_-2">
          <mxGeometry relative="1" as="geometry" />
        </mxCell>
        <mxCell id="SztQCZqe5MYCLofAgVz8-65" style="edgeStyle=orthogonalEdgeStyle;rounded=0;orthogonalLoop=1;jettySize=auto;html=1;exitX=0;exitY=0;exitDx=0;exitDy=0;endArrow=none;endFill=0;entryX=1.003;entryY=0.876;entryDx=0;entryDy=0;curved=1;entryPerimeter=0;" edge="1" parent="1" source="SztQCZqe5MYCLofAgVz8-66" target="rBqYLypj0LlrX5aWcThq-8">
          <mxGeometry relative="1" as="geometry">
            <mxPoint x="-874" y="162" as="targetPoint" />
          </mxGeometry>
        </mxCell>
        <mxCell id="gxrQh453CRDJ1SZHtIAR-123" value="&lt;b&gt;&lt;u&gt;id&lt;/u&gt;&lt;/b&gt;" style="ellipse;whiteSpace=wrap;html=1;align=center;rotation=0;" vertex="1" parent="1">
          <mxGeometry x="40" y="-574" width="69" height="40" as="geometry" />
        </mxCell>
        <mxCell id="LBeVLWIl04Jx7ls1Goi7-2" value="&lt;u&gt;id&lt;/u&gt;" style="ellipse;whiteSpace=wrap;html=1;align=center;" vertex="1" parent="1">
          <mxGeometry x="-491" y="473" width="69" height="40" as="geometry" />
        </mxCell>
        <mxCell id="SztQCZqe5MYCLofAgVz8-76" style="edgeStyle=orthogonalEdgeStyle;rounded=0;orthogonalLoop=1;jettySize=auto;html=1;exitX=1;exitY=1;exitDx=0;exitDy=0;entryX=0;entryY=0.25;entryDx=0;entryDy=0;endArrow=none;endFill=0;curved=1;" edge="1" parent="1" source="SztQCZqe5MYCLofAgVz8-63" target="rBqYLypj0LlrX5aWcThq-8">
          <mxGeometry relative="1" as="geometry" />
        </mxCell>
        <mxCell id="gxrQh453CRDJ1SZHtIAR-136" value="celular" style="ellipse;whiteSpace=wrap;html=1;align=center;rotation=0;" vertex="1" parent="1">
          <mxGeometry x="487" y="-682" width="69" height="40" as="geometry" />
        </mxCell>
        <mxCell id="gxrQh453CRDJ1SZHtIAR-126" value="cpf" style="ellipse;whiteSpace=wrap;html=1;align=center;rotation=0;" vertex="1" parent="1">
          <mxGeometry x="221" y="-657" width="69" height="40" as="geometry" />
        </mxCell>
        <mxCell id="gxrQh453CRDJ1SZHtIAR-155" style="edgeStyle=orthogonalEdgeStyle;rounded=0;orthogonalLoop=1;jettySize=auto;html=1;entryX=0.5;entryY=1;entryDx=0;entryDy=0;endArrow=none;endFill=0;curved=1;" edge="1" parent="1" source="gxrQh453CRDJ1SZHtIAR-154" target="rBqYLypj0LlrX5aWcThq-14">
          <mxGeometry relative="1" as="geometry" />
        </mxCell>
        <mxCell id="gxrQh453CRDJ1SZHtIAR-154" value="comissao_base " style="ellipse;whiteSpace=wrap;html=1;align=center;rotation=0;" vertex="1" parent="1">
          <mxGeometry x="634.5" y="-435" width="162" height="40" as="geometry" />
        </mxCell>
        <mxCell id="SztQCZqe5MYCLofAgVz8-55" style="edgeStyle=orthogonalEdgeStyle;rounded=0;orthogonalLoop=1;jettySize=auto;html=1;exitX=0.5;exitY=0;exitDx=0;exitDy=0;entryX=0.75;entryY=1;entryDx=0;entryDy=0;endArrow=none;endFill=0;curved=1;" edge="1" parent="1" source="SztQCZqe5MYCLofAgVz8-56" target="rBqYLypj0LlrX5aWcThq-8">
          <mxGeometry relative="1" as="geometry">
            <mxPoint x="-891.72" y="170.46000000000004" as="targetPoint" />
          </mxGeometry>
        </mxCell>
        <mxCell id="rBqYLypj0LlrX5aWcThq-72" style="edgeStyle=orthogonalEdgeStyle;rounded=0;orthogonalLoop=1;jettySize=auto;html=1;endArrow=none;endFill=0;curved=1;" edge="1" parent="1" source="rBqYLypj0LlrX5aWcThq-51">
          <mxGeometry relative="1" as="geometry">
            <mxPoint x="656.0033333333334" y="-109" as="targetPoint" />
          </mxGeometry>
        </mxCell>
        <mxCell id="rBqYLypj0LlrX5aWcThq-81" value="" style="edgeStyle=orthogonalEdgeStyle;rounded=0;orthogonalLoop=1;jettySize=auto;html=1;entryX=0;entryY=1;entryDx=0;entryDy=0;endArrow=none;endFill=0;curved=1;" edge="1" parent="1" source="rBqYLypj0LlrX5aWcThq-56" target="g2xsP6k9ulPOgVXJOia_-7">
          <mxGeometry relative="1" as="geometry">
            <mxPoint x="211" y="-192" as="targetPoint" />
          </mxGeometry>
        </mxCell>
        <mxCell id="SztQCZqe5MYCLofAgVz8-83" style="edgeStyle=orthogonalEdgeStyle;rounded=0;orthogonalLoop=1;jettySize=auto;html=1;exitX=1;exitY=1;exitDx=0;exitDy=0;entryX=0.311;entryY=-0.038;entryDx=0;entryDy=0;entryPerimeter=0;endArrow=none;endFill=0;curved=1;" edge="1" parent="1" source="SztQCZqe5MYCLofAgVz8-77" target="rBqYLypj0LlrX5aWcThq-8">
          <mxGeometry relative="1" as="geometry" />
        </mxCell>
        <mxCell id="SztQCZqe5MYCLofAgVz8-54" value="qtd_suites" style="ellipse;whiteSpace=wrap;html=1;align=center;" vertex="1" parent="1">
          <mxGeometry x="-792" y="263" width="60" height="29" as="geometry" />
        </mxCell>
        <mxCell id="SztQCZqe5MYCLofAgVz8-73" value="descricao" style="ellipse;whiteSpace=wrap;html=1;align=center;" vertex="1" parent="1">
          <mxGeometry x="-875" y="98" width="56" height="34" as="geometry" />
        </mxCell>
        <mxCell id="rBqYLypj0LlrX5aWcThq-54" value="&lt;u&gt;id&lt;/u&gt;" style="ellipse;whiteSpace=wrap;html=1;align=center;" vertex="1" parent="1">
          <mxGeometry x="167.5" y="-218" width="80" height="24" as="geometry" />
        </mxCell>
        <mxCell id="SztQCZqe5MYCLofAgVz8-97" value="" style="endArrow=none;html=1;rounded=0;" edge="1" parent="1">
          <mxGeometry width="50" height="50" relative="1" as="geometry">
            <mxPoint x="-720" y="-108" as="sourcePoint" />
            <mxPoint x="-720" y="24" as="targetPoint" />
          </mxGeometry>
        </mxCell>
        <mxCell id="SztQCZqe5MYCLofAgVz8-85" style="edgeStyle=orthogonalEdgeStyle;rounded=0;orthogonalLoop=1;jettySize=auto;html=1;exitX=0;exitY=1;exitDx=0;exitDy=0;entryX=0.75;entryY=0;entryDx=0;entryDy=0;endArrow=none;endFill=0;curved=1;" edge="1" parent="1" source="SztQCZqe5MYCLofAgVz8-84" target="rBqYLypj0LlrX5aWcThq-8">
          <mxGeometry relative="1" as="geometry" />
        </mxCell>
        <mxCell id="rBqYLypj0LlrX5aWcThq-51" value="Nome" style="ellipse;whiteSpace=wrap;html=1;align=center;" vertex="1" parent="1">
          <mxGeometry x="693.67" y="-100" width="80" height="24" as="geometry" />
        </mxCell>
        <mxCell id="LBeVLWIl04Jx7ls1Goi7-32" value="valorEstipulado" style="ellipse;whiteSpace=wrap;html=1;align=center;" vertex="1" parent="1">
          <mxGeometry x="-83.5" y="486" width="87" height="42" as="geometry" />
        </mxCell>
        <mxCell id="rBqYLypj0LlrX5aWcThq-38" value="descricao" style="ellipse;whiteSpace=wrap;html=1;align=center;" vertex="1" parent="1">
          <mxGeometry x="884" y="-520" width="69" height="40" as="geometry" />
        </mxCell>
        <mxCell id="rBqYLypj0LlrX5aWcThq-83" style="edgeStyle=orthogonalEdgeStyle;rounded=0;orthogonalLoop=1;jettySize=auto;html=1;entryX=1;entryY=0.75;entryDx=0;entryDy=0;endArrow=none;endFill=0;curved=1;" edge="1" parent="1" source="rBqYLypj0LlrX5aWcThq-61" target="rBqYLypj0LlrX5aWcThq-5">
          <mxGeometry relative="1" as="geometry" />
        </mxCell>
        <mxCell id="LBeVLWIl04Jx7ls1Goi7-47" style="edgeStyle=orthogonalEdgeStyle;rounded=0;orthogonalLoop=1;jettySize=auto;html=1;endArrow=none;endFill=0;curved=1;" edge="1" parent="1" source="LBeVLWIl04Jx7ls1Goi7-34">
          <mxGeometry relative="1" as="geometry">
            <mxPoint x="715.5" y="462.10426839192723" as="targetPoint" />
          </mxGeometry>
        </mxCell>
        <mxCell id="gxrQh453CRDJ1SZHtIAR-158" style="edgeStyle=orthogonalEdgeStyle;rounded=0;orthogonalLoop=1;jettySize=auto;html=1;entryX=0.75;entryY=1;entryDx=0;entryDy=0;curved=1;endArrow=none;endFill=0;" edge="1" parent="1" source="gxrQh453CRDJ1SZHtIAR-157" target="g2xsP6k9ulPOgVXJOia_-9">
          <mxGeometry relative="1" as="geometry" />
        </mxCell>
        <mxCell id="gxrQh453CRDJ1SZHtIAR-157" value="porcentagem_comissao" style="ellipse;whiteSpace=wrap;html=1;align=center;" vertex="1" parent="1">
          <mxGeometry x="440.5" y="680" width="162" height="40" as="geometry" />
        </mxCell>
        <mxCell id="SztQCZqe5MYCLofAgVz8-78" value="valor_cond" style="ellipse;whiteSpace=wrap;html=1;align=center;" vertex="1" parent="1">
          <mxGeometry x="-640" y="85" width="68" height="45" as="geometry" />
        </mxCell>
        <mxCell id="LBeVLWIl04Jx7ls1Goi7-45" style="edgeStyle=orthogonalEdgeStyle;rounded=0;orthogonalLoop=1;jettySize=auto;html=1;endArrow=none;endFill=0;curved=1;" edge="1" parent="1" source="LBeVLWIl04Jx7ls1Goi7-35">
          <mxGeometry relative="1" as="geometry">
            <mxPoint x="724" y="399" as="targetPoint" />
          </mxGeometry>
        </mxCell>
        <mxCell id="LBeVLWIl04Jx7ls1Goi7-25" value="&lt;u&gt;id&lt;/u&gt;" style="ellipse;whiteSpace=wrap;html=1;align=center;" vertex="1" parent="1">
          <mxGeometry x="-140" y="389" width="55" height="40" as="geometry" />
        </mxCell>
        <mxCell id="LBeVLWIl04Jx7ls1Goi7-9" value="tipo" style="ellipse;whiteSpace=wrap;html=1;align=center;" vertex="1" parent="1">
          <mxGeometry x="-547" y="393" width="69" height="40" as="geometry" />
        </mxCell>
        <mxCell id="LBeVLWIl04Jx7ls1Goi7-33" style="edgeStyle=orthogonalEdgeStyle;rounded=0;orthogonalLoop=1;jettySize=auto;html=1;exitX=0.5;exitY=0;exitDx=0;exitDy=0;entryX=0.094;entryY=1.021;entryDx=0;entryDy=0;entryPerimeter=0;endArrow=none;endFill=0;elbow=vertical;curved=1;" edge="1" parent="1" source="LBeVLWIl04Jx7ls1Goi7-32" target="g2xsP6k9ulPOgVXJOia_-8">
          <mxGeometry relative="1" as="geometry" />
        </mxCell>
        <mxCell id="LBeVLWIl04Jx7ls1Goi7-31" style="edgeStyle=orthogonalEdgeStyle;rounded=0;orthogonalLoop=1;jettySize=auto;html=1;exitX=1;exitY=0.5;exitDx=0;exitDy=0;entryX=0.003;entryY=0.613;entryDx=0;entryDy=0;entryPerimeter=0;endArrow=none;endFill=0;curved=1;" edge="1" parent="1" source="LBeVLWIl04Jx7ls1Goi7-25" target="g2xsP6k9ulPOgVXJOia_-8">
          <mxGeometry relative="1" as="geometry" />
        </mxCell>
        <mxCell id="LBeVLWIl04Jx7ls1Goi7-58" style="edgeStyle=orthogonalEdgeStyle;rounded=0;orthogonalLoop=1;jettySize=auto;html=1;entryX=0.311;entryY=0.991;entryDx=0;entryDy=0;entryPerimeter=0;endArrow=none;endFill=0;curved=1;" edge="1" parent="1" source="LBeVLWIl04Jx7ls1Goi7-53" target="g2xsP6k9ulPOgVXJOia_-2">
          <mxGeometry relative="1" as="geometry" />
        </mxCell>
        <mxCell id="LBeVLWIl04Jx7ls1Goi7-57" style="edgeStyle=orthogonalEdgeStyle;rounded=0;orthogonalLoop=1;jettySize=auto;html=1;entryX=0.722;entryY=1.006;entryDx=0;entryDy=0;entryPerimeter=0;exitX=0;exitY=0.5;exitDx=0;exitDy=0;endArrow=none;endFill=0;curved=1;" edge="1" parent="1" source="LBeVLWIl04Jx7ls1Goi7-54" target="g2xsP6k9ulPOgVXJOia_-2">
          <mxGeometry relative="1" as="geometry" />
        </mxCell>
        <mxCell id="rBqYLypj0LlrX5aWcThq-42" value="Nome" style="ellipse;whiteSpace=wrap;html=1;align=center;" vertex="1" parent="1">
          <mxGeometry x="650" y="186.5" width="80" height="24" as="geometry" />
        </mxCell>
        <mxCell id="LBeVLWIl04Jx7ls1Goi7-10" style="edgeStyle=orthogonalEdgeStyle;rounded=0;orthogonalLoop=1;jettySize=auto;html=1;entryX=0;entryY=0.5;entryDx=0;entryDy=0;endArrow=none;endFill=0;curved=1;" edge="1" parent="1" source="LBeVLWIl04Jx7ls1Goi7-9" target="gxrQh453CRDJ1SZHtIAR-1">
          <mxGeometry relative="1" as="geometry" />
        </mxCell>
        <mxCell id="gxrQh453CRDJ1SZHtIAR-161" value="disponivel" style="ellipse;whiteSpace=wrap;html=1;align=center;rotation=0;" vertex="1" parent="1">
          <mxGeometry x="-181" y="-135" width="69" height="40" as="geometry" />
        </mxCell>
        <mxCell id="gxrQh453CRDJ1SZHtIAR-162" style="edgeStyle=orthogonalEdgeStyle;rounded=0;orthogonalLoop=1;jettySize=auto;html=1;entryX=0.101;entryY=1.001;entryDx=0;entryDy=0;curved=1;endArrow=none;endFill=0;entryPerimeter=0;" edge="1" parent="1" source="gxrQh453CRDJ1SZHtIAR-161" target="g2xsP6k9ulPOgVXJOia_-3">
          <mxGeometry relative="1" as="geometry" />
        </mxCell>
        <mxCell id="SztQCZqe5MYCLofAgVz8-90" style="edgeStyle=orthogonalEdgeStyle;rounded=0;orthogonalLoop=1;jettySize=auto;html=1;exitX=0;exitY=0.5;exitDx=0;exitDy=0;entryX=0.992;entryY=0.933;entryDx=0;entryDy=0;entryPerimeter=0;endArrow=none;endFill=0;curved=1;" edge="1" parent="1" source="SztQCZqe5MYCLofAgVz8-86" target="rBqYLypj0LlrX5aWcThq-6">
          <mxGeometry relative="1" as="geometry" />
        </mxCell>
        <mxCell id="gxrQh453CRDJ1SZHtIAR-134" value="numero" style="ellipse;whiteSpace=wrap;html=1;align=center;rotation=0;" vertex="1" parent="1">
          <mxGeometry x="313" y="-642" width="69" height="40" as="geometry" />
        </mxCell>
        <mxCell id="gxrQh453CRDJ1SZHtIAR-132" value="logradouro" style="ellipse;whiteSpace=wrap;html=1;align=center;rotation=0;" vertex="1" parent="1">
          <mxGeometry x="273" y="-715" width="69" height="40" as="geometry" />
        </mxCell>
        <mxCell id="gxrQh453CRDJ1SZHtIAR-165" value="&lt;b&gt;&lt;u&gt;id&lt;/u&gt;&lt;/b&gt;" style="ellipse;whiteSpace=wrap;html=1;align=center;rotation=0;" vertex="1" parent="1">
          <mxGeometry x="-572" y="-258" width="69" height="40" as="geometry" />
        </mxCell>
        <mxCell id="gxrQh453CRDJ1SZHtIAR-166" value="logradouro" style="ellipse;whiteSpace=wrap;html=1;align=center;rotation=0;" vertex="1" parent="1">
          <mxGeometry x="-607" y="-374" width="69" height="40" as="geometry" />
        </mxCell>
        <mxCell id="gxrQh453CRDJ1SZHtIAR-179" value="" style="edgeStyle=orthogonalEdgeStyle;rounded=0;orthogonalLoop=1;jettySize=auto;html=1;entryX=0.75;entryY=1;entryDx=0;entryDy=0;exitX=0;exitY=0.75;exitDx=0;exitDy=0;endArrow=none;endFill=0;" edge="1" parent="1" source="rBqYLypj0LlrX5aWcThq-5" target="gxrQh453CRDJ1SZHtIAR-178">
          <mxGeometry relative="1" as="geometry">
            <mxPoint x="233" y="135" as="sourcePoint" />
            <mxPoint x="-290" y="-290" as="targetPoint" />
            <Array as="points">
              <mxPoint x="134" y="135" />
              <mxPoint x="134" y="62" />
              <mxPoint x="-65" y="62" />
            </Array>
          </mxGeometry>
        </mxCell>
        <mxCell id="gxrQh453CRDJ1SZHtIAR-181" value="1" style="edgeLabel;html=1;align=center;verticalAlign=middle;resizable=0;points=[];" vertex="1" connectable="0" parent="gxrQh453CRDJ1SZHtIAR-179">
          <mxGeometry x="-0.8595" y="5" relative="1" as="geometry">
            <mxPoint as="offset" />
          </mxGeometry>
        </mxCell>
        <mxCell id="gxrQh453CRDJ1SZHtIAR-183" value="" style="edgeStyle=orthogonalEdgeStyle;rounded=0;orthogonalLoop=1;jettySize=auto;html=1;entryX=0.5;entryY=0;entryDx=0;entryDy=0;endArrow=none;endFill=0;" edge="1" parent="1" source="rBqYLypj0LlrX5aWcThq-13" target="gxrQh453CRDJ1SZHtIAR-182">
          <mxGeometry relative="1" as="geometry">
            <Array as="points">
              <mxPoint x="230" y="-432" />
              <mxPoint x="-1017" y="-432" />
            </Array>
            <mxPoint x="230" y="-470" as="sourcePoint" />
            <mxPoint x="400" y="620" as="targetPoint" />
          </mxGeometry>
        </mxCell>
        <mxCell id="gxrQh453CRDJ1SZHtIAR-184" value="N" style="edgeLabel;html=1;align=center;verticalAlign=middle;resizable=0;points=[];" vertex="1" connectable="0" parent="gxrQh453CRDJ1SZHtIAR-183">
          <mxGeometry x="-0.9701" y="1" relative="1" as="geometry">
            <mxPoint as="offset" />
          </mxGeometry>
        </mxCell>
        <mxCell id="gxrQh453CRDJ1SZHtIAR-182" value="" style="rhombus;whiteSpace=wrap;html=1;" vertex="1" parent="1">
          <mxGeometry x="-1037" y="85" width="40" height="40" as="geometry" />
        </mxCell>
        <mxCell id="gxrQh453CRDJ1SZHtIAR-178" value="" style="rhombus;whiteSpace=wrap;html=1;" vertex="1" parent="1">
          <mxGeometry x="-92" y="-27" width="40" height="40" as="geometry" />
        </mxCell>
        <mxCell id="SztQCZqe5MYCLofAgVz8-106" style="edgeStyle=orthogonalEdgeStyle;rounded=0;orthogonalLoop=1;jettySize=auto;html=1;exitX=0.5;exitY=1;exitDx=0;exitDy=0;entryX=0.25;entryY=0;entryDx=0;entryDy=0;curved=1;endArrow=none;endFill=0;" edge="1" parent="1" source="SztQCZqe5MYCLofAgVz8-105" target="SztQCZqe5MYCLofAgVz8-98">
          <mxGeometry relative="1" as="geometry" />
        </mxCell>
        <mxCell id="SztQCZqe5MYCLofAgVz8-105" value="relevo" style="ellipse;whiteSpace=wrap;html=1;align=center;" vertex="1" parent="1">
          <mxGeometry x="-792" y="-237" width="42" height="40" as="geometry" />
        </mxCell>
        <mxCell id="gxrQh453CRDJ1SZHtIAR-190" style="edgeStyle=orthogonalEdgeStyle;rounded=0;orthogonalLoop=1;jettySize=auto;html=1;entryX=0.25;entryY=0;entryDx=0;entryDy=0;curved=1;endArrow=none;endFill=0;" edge="1" parent="1" source="gxrQh453CRDJ1SZHtIAR-186" target="g2xsP6k9ulPOgVXJOia_-3">
          <mxGeometry relative="1" as="geometry" />
        </mxCell>
        <mxCell id="gxrQh453CRDJ1SZHtIAR-186" value="complemento" style="ellipse;whiteSpace=wrap;html=1;align=center;rotation=0;" vertex="1" parent="1">
          <mxGeometry x="-131" y="-308" width="107" height="40" as="geometry" />
        </mxCell>
        <mxCell id="gxrQh453CRDJ1SZHtIAR-189" style="edgeStyle=orthogonalEdgeStyle;rounded=0;orthogonalLoop=1;jettySize=auto;html=1;entryX=1;entryY=0.25;entryDx=0;entryDy=0;curved=1;endArrow=none;endFill=0;" edge="1" parent="1" source="gxrQh453CRDJ1SZHtIAR-187" target="g2xsP6k9ulPOgVXJOia_-3">
          <mxGeometry relative="1" as="geometry" />
        </mxCell>
        <mxCell id="gxrQh453CRDJ1SZHtIAR-187" value="numero" style="ellipse;whiteSpace=wrap;html=1;align=center;rotation=0;" vertex="1" parent="1">
          <mxGeometry x="53" y="-268" width="69" height="40" as="geometry" />
        </mxCell>
        <mxCell id="gxrQh453CRDJ1SZHtIAR-191" style="edgeStyle=orthogonalEdgeStyle;rounded=0;orthogonalLoop=1;jettySize=auto;html=1;entryX=0;entryY=0.25;entryDx=0;entryDy=0;endArrow=none;endFill=0;curved=1;" edge="1" parent="1" source="gxrQh453CRDJ1SZHtIAR-188" target="g2xsP6k9ulPOgVXJOia_-3">
          <mxGeometry relative="1" as="geometry" />
        </mxCell>
        <mxCell id="gxrQh453CRDJ1SZHtIAR-188" value="logradouro" style="ellipse;whiteSpace=wrap;html=1;align=center;rotation=0;" vertex="1" parent="1">
          <mxGeometry x="-230" y="-314" width="69" height="40" as="geometry" />
        </mxCell>
        <mxCell id="gxrQh453CRDJ1SZHtIAR-193" style="edgeStyle=orthogonalEdgeStyle;rounded=0;orthogonalLoop=1;jettySize=auto;html=1;entryX=1;entryY=0.5;entryDx=0;entryDy=0;curved=1;" edge="1" parent="1" source="gxrQh453CRDJ1SZHtIAR-192" target="rBqYLypj0LlrX5aWcThq-4">
          <mxGeometry relative="1" as="geometry" />
        </mxCell>
        <mxCell id="gxrQh453CRDJ1SZHtIAR-192" value="&lt;b&gt;&lt;u&gt;id&lt;/u&gt;&lt;/b&gt;" style="ellipse;whiteSpace=wrap;html=1;align=center;rotation=0;" vertex="1" parent="1">
          <mxGeometry x="236" y="-418" width="67" height="40" as="geometry" />
        </mxCell>
        <mxCell id="gxrQh453CRDJ1SZHtIAR-195" style="edgeStyle=orthogonalEdgeStyle;rounded=0;orthogonalLoop=1;jettySize=auto;html=1;entryX=1;entryY=0.75;entryDx=0;entryDy=0;curved=1;" edge="1" parent="1" source="gxrQh453CRDJ1SZHtIAR-194" target="rBqYLypj0LlrX5aWcThq-4">
          <mxGeometry relative="1" as="geometry" />
        </mxCell>
        <mxCell id="gxrQh453CRDJ1SZHtIAR-194" value="&lt;div&gt;arquivo&lt;/div&gt;" style="ellipse;whiteSpace=wrap;html=1;align=center;rotation=0;" vertex="1" parent="1">
          <mxGeometry x="228" y="-350" width="107" height="40" as="geometry" />
        </mxCell>
        <mxCell id="gxrQh453CRDJ1SZHtIAR-197" style="edgeStyle=orthogonalEdgeStyle;rounded=0;orthogonalLoop=1;jettySize=auto;html=1;entryX=0.25;entryY=1;entryDx=0;entryDy=0;curved=1;" edge="1" parent="1" source="gxrQh453CRDJ1SZHtIAR-196" target="rBqYLypj0LlrX5aWcThq-4">
          <mxGeometry relative="1" as="geometry">
            <Array as="points">
              <mxPoint x="134" y="-347" />
              <mxPoint x="75" y="-347" />
            </Array>
          </mxGeometry>
        </mxCell>
        <mxCell id="gxrQh453CRDJ1SZHtIAR-196" value="data_criacao" style="ellipse;whiteSpace=wrap;html=1;align=center;rotation=0;" vertex="1" parent="1">
          <mxGeometry x="80" y="-345" width="107" height="40" as="geometry" />
        </mxCell>
      </root>
    </mxGraphModel>
  </diagram>
</mxfile>
